<?xml version="1.0" encoding="UTF-8"?>
<svg id="Layer_1" data-name="Layer 1" xmlns="http://www.w3.org/2000/svg" viewBox="0 0 644.93 537.92">
  <defs>
    <style>
      .cls-1 {
        fill: #68a042;
      }

      .cls-2 {
        fill: #9f7c2d;
      }

      .cls-3 {
        fill: #a01d22;
      }

      .cls-4 {
        fill: #811619;
      }

      .cls-5 {
        fill: #d01f26;
      }

      .cls-6 {
        fill: #2e613d;
      }

      .cls-7 {
        fill: #efdeb2;
      }

      .cls-8 {
        fill: #fdc044;
      }
    </style>
  </defs>
  <g>
    <polygon class="cls-8" points="642.07 268.96 573.49 311.45 613.38 379.54 531.93 387.86 538.05 465.76 459.53 443.21 435.98 518.13 369.99 471.62 322.47 535.4 274.94 471.62 208.95 518.13 185.4 443.21 106.88 465.76 113 387.85 31.55 379.54 71.44 311.44 2.86 268.96 71.44 226.48 31.55 158.38 113 150.07 106.88 72.17 185.4 94.72 208.95 19.79 274.94 66.3 322.47 2.52 369.99 66.3 435.98 19.79 459.53 94.72 538.05 72.17 531.93 150.07 613.38 158.39 573.5 226.48 642.07 268.96"/>
    <path class="cls-2" d="M322.47,537.92l-47.86-64.23-66.48,46.85-23.72-75.49-79.2,22.74,6.18-78.6-82.32-8.41,40.33-68.84L0,268.96l69.39-42.99-40.33-68.85,82.32-8.4-6.18-78.6,79.2,22.74,23.73-75.49,66.47,46.85L322.47,0l47.86,64.23,66.48-46.85,23.72,75.49,79.2-22.74-6.18,78.6,82.32,8.41-40.33,68.84,69.39,42.99-69.39,42.99,40.33,68.85-82.32,8.41,6.18,78.6-79.2-22.74-23.73,75.49-66.47-46.85-47.86,64.23ZM275.27,469.55l47.2,63.34,47.2-63.34,65.5,46.17,23.37-74.36,77.85,22.36-6.07-77.2,80.59-8.23-39.45-67.34,67.76-41.98-67.76-41.98,39.45-67.34-80.59-8.23,6.07-77.21-77.85,22.35-23.37-74.36-65.5,46.17-47.2-63.34-47.2,63.34-65.5-46.17-23.37,74.36-77.85-22.36,6.07,77.2-80.59,8.23,39.45,67.34L5.72,268.96l67.76,41.98-39.45,67.34,80.59,8.23-6.07,77.21,77.85-22.36,23.37,74.36,65.5-46.17Z"/>
  </g>
  <ellipse class="cls-5" cx="321.63" cy="269.4" rx="228.12" ry="182.37"/>
  <g>
    <path class="cls-7" d="M156.95,234.83c-13.49-22.46-8.11-79.31,17.07-94.44,4.81-2.89,11.41-4.67,14.72.84,4.34,7.22,3.66,25.5-4.6,30.46-2.3,1.38-5.05,1.53-7.48.81l1.16-16.53.79-.34c1.19,1.74,3.35,3.44,5.65,2.06,3.55-2.13,2.96-7.37,1.22-10.28-1.63-2.71-4.54-2.59-7.15-1.02-19.12,11.48-15.32,59.95-5.86,75.7,3.55,5.92,8.87,8.86,15.56,4.84,10.55-6.34,14.44-22.59,16.1-33.55l2.74.54c-2.1,17.09-9.24,35.98-25.23,45.58-9.4,5.65-19.1,4.65-24.7-4.67Z"/>
    <path class="cls-7" d="M214.96,207.46c-1.68-4.49,2.17-26.17,4.33-30.85-3.85,2.57-7.76,4.65-10.94,7.97l-2.61-.02c.38-3.51.34-5-.93-8.4-1.35-3.61-2.15-8.19-.44-11.95.91-2.09,2.79-5.04,5.08-5.9,1.6-.6,2.58.28,3.11,1.71,1.03,2.74.82,3.94.89,6.54l.34-.13c3.99-1.5,9.7-5.38,12.58-8.46.44.83.73,1.6,1.06,2.48.86,2.3,1.58,4.91,1.87,7.42-4.13,7.04-6.74,16.76-3.82,24.54.16.44.38,1.36,1.06,1.1,3.19-1.2,9.06-20.63,10.37-23.75l2.84,1.68c-2.98,8.73-10.27,34.08-19.97,37.71-2.17.81-3.98.49-4.8-1.7Z"/>
    <path class="cls-7" d="M232.06,195.07c-2.91-13.01,7.63-38.5,22.37-41.8,2.14-.48,4.38-.5,6.49-.01l.99-2.26,11.64-3.8c-2.41,6.53-7.18,26.53-5.78,32.81.18.8.75,2.23,1.94,1.96,3.21-.72,9.67-17.62,11.39-21.12l2.84,1.52c-2.61,6.22-12.05,30.98-20.97,32.98-3.57.8-5.38-3.95-6.06-6.44-3.31,5.29-8.17,10.94-14.71,12.4-5.71,1.28-8.91-.76-10.14-6.24ZM248.41,190.58c3.09-.69,6-4.46,7.56-6.97-.66-7.4,1.24-19.57,3.76-26.73-.91-.15-1.79-.2-2.74.02-8.21,1.84-14.07,23.64-12.51,30.61.41,1.83,1.67,3.58,3.93,3.08Z"/>
    <path class="cls-7" d="M293.95,186.46c-.42-7.24,6.4-16.07,6.11-21.09-.03-.47-.18-1.05-.79-1.01-.85.05-1.66.8-2.25,1.18-7.04,4.97-13.61,15.9-17.21,23.37-3.2,1.59-6.8,2.73-10.44,3.06,5.61-14.97,11.47-29.83,17.21-44.69,4.69-1.21,9.52-2.19,14.38-2.58-2.61,5.54-5.1,11.07-7.83,16.62l.38.21c4.38-4.59,16.28-16.17,22.85-16.55,1.46-.08,2.23.57,2.31,1.98.3,5.14-10.33,22.04-9.86,30.33.02.35.18.93.66.9,2.92-.17,14.56-16.3,16.71-19.35l1.99,2.7c-4.14,6.57-21.5,29.47-29.53,29.93-3.16.18-4.53-2.32-4.68-5Z"/>
    <path class="cls-7" d="M318.2,178.05c1.05-14.47,26.17-60.97,43.67-59.71,2.55.18,3.55,1.66,3.38,4-.88,12.13-20.15,31.97-29.48,39.27-1.75,3.98-3.3,8.44-3.61,12.76-.22,3.03.1,7.04,4.11,7.33,7.54.54,13.32-10.18,13.89-16.35-1.59-1.64-2.29-3.8-2.13-6.02.2-2.8,2.68-8.37,6.21-8.11,3.4.25,4.56,4.55,4.36,7.24-.14,1.87-.76,3.7-1.73,5.27.64,1.34,1.9,2.48,3.48,2.6,2.43.18,4.65-1.78,6.11-3.43l1.74,2.94c-2.51,2.63-6.09,4.84-9.98,4.56-1.46-.11-2.89-.56-4.05-1.47-4.66,8.69-15.62,23.38-27.29,22.54-7.29-.53-9.11-7.46-8.68-13.41ZM336.83,157.12c5.47-4.65,19.29-20.07,20.88-26.76-.1-.36-.2-.6-.57-.63-4.13-.3-18.66,23.16-20.55,27.25l.23.13Z"/>
    <path class="cls-7" d="M354.46,181.72c.45-2.77,1.25-5.49,2.3-8.16,4.34-10.91,21.85-25.39,34.73-23.32,5.05.81,9.32,4.22,8.47,9.54-.43,2.66-1.82,5.16-3.51,7.25-6.71,8.75-16.23,12.67-27.53,10.03-.69,1.19-1.27,2.52-1.49,3.91-.56,3.47,1.48,6.16,5.09,6.74,10.47,1.68,25.12-12.67,31.96-19.15l.31,4.2c-7.22,8.08-28.87,24.5-40.54,22.63-7.46-1.2-10.89-6.73-9.78-13.66ZM371.71,173.47c7.94,1.28,16.92-5.45,18.11-12.85.22-1.39-.18-2.75-1.74-3-5.29-.85-14.86,11.83-16.97,15.76l.6.1Z"/>
    <path class="cls-7" d="M394.17,196.85c1.11-4.66,16.43-20.49,20.82-23.16-4.63-.02-9.03-.48-13.53.5l-2.15-1.48c2.27-2.7,3.08-3.96,3.92-7.48.9-3.75,2.79-7.99,6.31-10.16,1.92-1.22,5.14-2.62,7.51-2.05,1.66.4,1.98,1.68,1.63,3.15-.68,2.84-1.52,3.73-2.92,5.92l.35.08c4.15.99,11.05.96,15.16.02-.1.94-.29,1.73-.51,2.64-.57,2.39-1.43,4.95-2.6,7.2-7.36,3.53-14.96,10.14-16.88,18.21-.11.45-.45,1.34.26,1.51,3.32.79,19.04-12.04,21.87-13.9l1.42,2.99c-7.35,5.58-27.56,22.52-37.64,20.11-2.25-.54-3.57-1.82-3.03-4.09Z"/>
    <path class="cls-7" d="M422.18,203.85c1.44-4.57,17.82-19.29,22.4-21.65-4.62-.35-8.98-1.11-13.53-.45l-2.04-1.62c2.46-2.54,3.35-3.73,4.44-7.19,1.16-3.68,3.34-7.78,7.01-9.69,2-1.09,5.31-2.25,7.63-1.52,1.63.51,1.86,1.81,1.4,3.26-.88,2.79-1.77,3.61-3.33,5.7l.35.11c4.07,1.28,10.95,1.73,15.12,1.08-.16.93-.41,1.71-.69,2.6-.74,2.34-1.78,4.84-3.09,7-7.59,3.01-15.63,9.07-18.12,16.99-.14.45-.54,1.3.16,1.52,3.25,1.02,19.84-10.68,22.79-12.33l1.2,3.08c-7.72,5.05-29.07,20.53-38.95,17.42-2.21-.69-3.44-2.06-2.74-4.29Z"/>
    <path class="cls-7" d="M437.76,228.31l1.4-10.72.47-.18c.41,2.46,2.19,4.5,4.54,5.5,2.69,1.15,5.48.81,7.93-.56,4.73-2.69,9.08-6.68,13.2-10.14l-.15-.57c-3.8,2.07-10.14,4.83-14.74,2.87-4.37-1.87-4.26-6.78-2.75-10.33,3.54-8.28,17.16-19.39,24.87-24.11,4.36.34,8.99,1.29,13.16,2.69-5.3,3.72-21.14,14.76-23.58,20.46-.64,1.51-.75,3.62,1.15,4.44,2.35,1.01,6.78-.67,8.63-1.91,2.42-1.64,4.72-4.22,6.89-6.21l14.24-12.87c4.49.65,9.69,1.21,13.95,3.03-11.17,8.46-20.84,18.7-31.65,27.57-6.93,5.69-14.1,12.55-22.3,16.55-3.03,1.51-6.32,1.75-9.57.37-2.58-1.1-4.85-3.22-5.71-5.87Z"/>
  </g>
  <g>
    <g>
      <g>
        <path class="cls-1" d="M246.32,332.25c-18.55,6.07-37.24-.14-41.73-13.88-4.49-13.73,6.9-29.79,25.46-35.86,51.76-16.94,89.95,15.92,91.04,19.25,1.27,3.88-25.23,14.28-74.77,30.48Z"/>
        <path class="cls-6" d="M232.13,336.07c-13.72,0-25.44-6.44-28.97-17.23-2.33-7.11-.8-14.97,4.29-22.14,4.99-7.03,12.85-12.58,22.13-15.62,27.58-9.02,50.87-3.86,65.55,2.06,16.05,6.47,26.61,15.78,27.39,18.16,1.18,3.62-3.72,8.82-75.73,32.38h0c-4.95,1.62-9.92,2.39-14.66,2.39ZM259.65,279.21c-9.02,0-18.8,1.36-29.13,4.74-8.67,2.84-15.99,7.98-20.61,14.5-4.52,6.37-5.9,13.29-3.88,19.46,4.23,12.92,22.1,18.71,39.83,12.91h0c60.94-19.94,72.5-26.55,73.72-28.74-2.01-3.06-25.5-22.88-59.92-22.88Z"/>
      </g>
      <g>
        <path class="cls-1" d="M300.71,294.27s-46.36-.89-74,17.16"/>
        <path class="cls-6" d="M300.67,296.28c-24.63-.33-52.33,2.52-73.96,15.15,16.19-10.72,35.63-15.21,54.66-17.69,6.42-.78,12.82-1.34,19.37-1.47l-.08,4.01h0Z"/>
      </g>
    </g>
    <g>
      <g>
        <path class="cls-1" d="M235.02,273.39c-13.78-3.14-23.07-13.96-20.75-24.16,2.32-10.2,15.38-15.93,29.16-12.79,38.45,8.76,49.93,43.38,49.36,45.86-.66,2.88-20.99-.53-57.78-8.92Z"/>
        <path class="cls-6" d="M289.07,284.82c-2.55,0-6.31-.39-11.84-1.26-9.53-1.5-23.45-4.35-42.54-8.7h0c-14.57-3.32-24.38-14.97-21.88-25.96,2.51-11,16.4-17.24,30.97-13.92,38.86,8.86,51.37,43.84,50.5,47.67-.31,1.35-1.45,2.18-5.2,2.18ZM235.35,271.92c42.96,9.79,53.64,10.42,55.93,9.74-.71-4.75-12.13-35.53-48.18-43.75-12.95-2.95-25.23,2.28-27.36,11.65-2.14,9.38,6.66,19.4,19.61,22.36h0Z"/>
      </g>
      <g>
        <path class="cls-1" d="M282.93,270.06s-28.46-17.82-52.34-16.91"/>
        <path class="cls-6" d="M281.87,271.77c-15.35-9.63-32.82-18.11-51.27-18.61,4.64-.27,9.31.06,13.93.76,13.9,2.44,27.09,7.7,39.47,14.44,0,0-2.13,3.4-2.13,3.4h0Z"/>
      </g>
    </g>
    <g>
      <g>
        <path class="cls-1" d="M373.8,332c12.57,9.99,28.18,9.75,34.86-.54,6.69-10.29,1.92-26.74-10.65-36.73-35.06-27.88-71.79-10.53-73.41-8.03-1.89,2.91,15.65,18.63,49.2,45.31Z"/>
        <path class="cls-6" d="M393.02,340.85c-6.74,0-13.89-2.69-20.15-7.67h0c-17.41-13.85-29.83-24.19-37.97-31.64-11.41-10.43-12.88-13.64-11.56-15.67,1.23-1.89,9.59-5.71,19.89-7.39,13.93-2.27,34.9-1.5,55.72,15.06,13.14,10.45,18.06,27.82,10.97,38.73-2.92,4.49-7.43,7.35-13.03,8.26-1.27.21-2.56.31-3.87.31ZM326,287.41c.53,2.24,7.92,10.95,48.74,43.41h0c6.82,5.42,14.72,7.88,21.67,6.75,4.75-.77,8.55-3.17,10.99-6.93,6.26-9.64,1.63-25.23-10.32-34.73-33.26-26.45-67.62-11.29-71.08-8.49Z"/>
      </g>
      <g>
        <path class="cls-1" d="M341.8,285.83s35.25,11.54,51.81,33.96"/>
        <path class="cls-6" d="M342.42,283.92c19.25,7.74,38.8,18.85,51.19,35.87-3.32-4.05-7.08-7.69-11.13-10.96-8.2-6.41-17.33-11.49-26.84-15.65-4.74-2.06-9.63-3.95-14.47-5.45l1.25-3.82h0Z"/>
      </g>
    </g>
    <g>
      <g>
        <path class="cls-1" d="M410.15,283.24c16.2-3.08,27.48-15.3,25.2-27.29-2.28-11.99-17.26-19.21-33.46-16.13-45.19,8.6-60.02,48.47-59.47,51.39.64,3.39,24.49.26,67.73-7.97Z"/>
        <path class="cls-6" d="M347.96,294.06c-5.22,0-6.72-.99-7.02-2.57-.41-2.17,3.48-13.23,12.89-24.79,8.47-10.4,23.63-23.76,47.77-28.35,16.98-3.23,32.78,4.54,35.22,17.33,1.2,6.28-.95,12.77-6.04,18.29-4.98,5.39-12.21,9.21-20.35,10.76l-.28-1.48.28,1.48c-22.44,4.27-38.77,7-49.94,8.35-5.61.68-9.64.98-12.53.98ZM343.94,290.69c2.24,1.01,14.15.93,65.93-8.92h0c7.52-1.43,14.16-4.93,18.7-9.85,4.43-4.79,6.31-10.36,5.3-15.68-2.12-11.16-16.34-17.86-31.7-14.93-42.8,8.14-57.51,44.54-58.23,49.38Z"/>
      </g>
      <g>
        <path class="cls-1" d="M354.44,277.35s33.92-19.57,61.72-17.51"/>
        <path class="cls-6" d="M353.43,275.61c19.04-9.44,41.24-17.47,62.72-15.77-5.42-.15-10.8.4-16.1,1.37-10.56,2.13-20.72,5.85-30.45,10.4-4.84,2.28-9.66,4.76-14.17,7.47l-2.01-3.48h0Z"/>
      </g>
    </g>
    <g>
      <path class="cls-3" d="M294.96,219.31c1.31-2.53.72-2.75.72-2.75-.44-1.57-4.35,1.11-4.35,1.11,1-3.44-1.34-3.13-1.34-3.13-2.43.22-4.75,4.66-4.75,4.66-1.54-3.61-3.8-2.46-3.8-2.46,0,0-2.39.83-.85,4.44,0,0-4.81-1.4-6.65.2,0,0-1.84,1.48,1.34,3.13,0,0-4.63.97-3.81,2.38,0,0-.28.64,2.9,1.5-11.04,9.81-15.25,25.59-9.3,39.53,7.5,17.58,28.3,25.55,46.45,17.8,18.15-7.75,26.79-28.28,19.28-45.86-6.07-14.21-20.82-22.14-35.85-20.56Z"/>
      <path class="cls-4" d="M297.17,290.18c-14.26,0-27.69-8.09-33.48-21.67-5.72-13.41-2.54-28.99,7.87-39.53-.74-.38-1.19-.79-1.43-1.28-.07-.14-.11-.28-.14-.43-.18-.51-.16-1.07.06-1.57.35-.8,1.25-1.4,2.24-1.83-.2-.36-.33-.74-.37-1.14-.11-1.13.51-2.06,1.08-2.51,1.41-1.23,3.76-1.23,5.57-.99-.03-.71.09-1.36.35-1.95.56-1.26,1.57-1.77,1.94-1.92.36-.16,1.43-.54,2.72-.07.61.22,1.16.59,1.65,1.1,1.09-1.48,2.72-3.18,4.62-3.35.66-.08,1.77.11,2.5.97.26.3.45.66.57,1.05,1-.42,2.04-.65,2.87-.35.52.19.94.56,1.18,1.05.08.12.15.24.2.38.16.42.19.9.06,1.5,15.23-.63,29.06,7.84,34.96,21.64,3.79,8.88,3.78,18.75-.02,27.79-3.79,9.02-10.92,16.14-20.06,20.04-4.89,2.09-9.97,3.07-14.95,3.07ZM273.61,226.58c.29.1.67.23,1.16.36.53.15.95.57,1.07,1.11.13.54-.05,1.1-.47,1.47-10.87,9.65-14.45,24.85-8.91,37.82,7.16,16.79,27.11,24.41,44.48,17.01,8.42-3.59,14.98-10.14,18.46-18.44,3.48-8.28,3.49-17.32.02-25.44-5.68-13.32-19.47-21.21-34.31-19.65-.56.05-1.09-.19-1.4-.65-.31-.46-.35-1.05-.09-1.54.15-.28.26-.52.35-.73-.55.25-1.22.63-1.8,1.02-.52.36-1.22.35-1.73-.03-.51-.37-.74-1.03-.56-1.64.19-.65.2-1.01.19-1.19-1.09.22-2.7,2.33-3.49,3.84-.27.52-.82.82-1.39.81-.58-.02-1.1-.38-1.33-.91-.64-1.5-1.34-1.86-1.78-1.68-.1.05-.03.03-.14.05-.38.18-.61.92.04,2.43.23.53.13,1.15-.26,1.59-.39.44-.99.61-1.55.45-1.65-.48-4.34-.78-5.19-.15.11.13.38.38,1,.7.56.29.88.91.8,1.54-.09.63-.56,1.14-1.18,1.27-.69.15-1.42.37-1.99.59ZM272.85,227.49s0,0,0,0t0,0ZM272.86,227.49h0s0,0,0,0ZM272.86,227.48h0ZM272.86,227.48s0,0,0,0t0,0ZM272.86,227.48s0,0,0,0c0,0,0,0,0,0ZM272.86,227.47s0,0,0,0c0,0,0,0,0,0ZM272.87,227.44s0,.02-.01.03c0,0,0-.02.01-.03ZM272.88,227.44s0,0,0,0c0,0,0,0,0,0ZM272.88,227.44h0,0ZM272.88,227.43h0s0,0,0,0Z"/>
    </g>
    <g>
      <path class="cls-3" d="M390.18,251.68c2.65.35,2.65-.24,2.65-.24,1.24-.89-2.36-3.49-2.36-3.49,3.35-.21,2.33-2.18,2.33-2.18-.97-2.07-5.62-2.7-5.62-2.7,2.69-2.51.95-4.13.95-4.13,0,0-1.5-1.85-4.19.66,0,0-.3-4.68-2.3-5.8,0,0-1.89-1.15-2.33,2.18,0,0-2.34-3.78-3.31-2.6,0,0-.65-.04-.4,3.04-12.17-6.61-27.43-5.28-37.83,4.41-13.11,12.22-13.5,33.1-.88,46.64,12.62,13.54,33.48,14.6,46.59,2.38,10.6-9.88,12.88-25.42,6.7-38.17Z"/>
      <path class="cls-4" d="M361.7,299.85c-9.4,0-18.89-3.83-25.91-11.36-6.37-6.83-9.79-15.67-9.61-24.87.17-9.22,3.93-17.71,10.57-23.9,10-9.32,24.74-11.5,37.36-5.74.11-.73.33-1.23.69-1.59.11-.11.22-.2.35-.27.41-.34.92-.5,1.47-.47.82.06,1.61.61,2.32,1.34.25-.27.53-.48.85-.63.99-.47,2.05-.21,2.65.16,1.52.85,2.29,2.87,2.66,4.55.59-.23,1.19-.33,1.77-.28,1.32.09,2.12.84,2.37,1.12.27.28.96,1.12.95,2.44,0,.59-.14,1.17-.41,1.75,1.65.5,3.62,1.41,4.38,3.03.3.57.49,1.65-.06,2.6-.17.31-.4.57-.69.8.68.76,1.17,1.59,1.17,2.41,0,.54-.2,1.05-.57,1.44-.08.11-.17.22-.28.31-.31.27-.7.44-1.23.53,5.36,13.23,2.29,28.12-8.01,37.72-6.39,5.96-14.57,8.9-22.81,8.9ZM359.59,233.83c-7.61,0-15.05,2.76-20.78,8.1-6.04,5.63-9.45,13.36-9.61,21.75-.16,8.42,2.97,16.5,8.8,22.76,12.04,12.91,31.98,13.94,44.46,2.31,9.9-9.23,12.46-23.86,6.37-36.41-.24-.5-.19-1.09.13-1.54s.86-.69,1.42-.61c.18.02.35.04.49.06-.37-.36-.83-.75-1.28-1.07-.51-.37-.74-1.03-.56-1.64s.72-1.05,1.35-1.09c.51-.03.81-.11.98-.17-.56-.74-2.67-1.48-4.38-1.71-.58-.08-1.06-.48-1.23-1.04-.18-.55-.02-1.16.41-1.56.88-.82,1.24-1.6.91-1.98-.09-.08-.03,0-.09-.1-.32-.31-1.11,0-1.99.81-.43.4-1.04.51-1.58.3-.54-.21-.91-.72-.95-1.3-.11-1.73-.7-3.89-1.4-4.49-.07.16-.17.46-.24.97-.08.63-.56,1.14-1.18,1.27-.63.13-1.26-.14-1.6-.68-.29-.47-.65-.96-.98-1.35,0,.24.02.53.05.87.05.55-.21,1.08-.68,1.39-.46.3-1.06.32-1.54.06-4.84-2.63-10.11-3.92-15.3-3.92ZM375.93,234.89s.08,0,.12,0c-.04,0-.08,0-.12,0h0Z"/>
    </g>
    <g>
      <path class="cls-3" d="M293.5,314.61c-2.55-.8-2.66-.21-2.66-.21-1.37.67,1.74,3.84,1.74,3.84-3.34-.36-2.67,1.75-2.67,1.75.61,2.21,5.09,3.61,5.09,3.61-3.08,2.02-1.64,3.91-1.64,3.91,0,0,1.17,2.07,4.24.05,0,0-.5,4.67,1.29,6.1,0,0,1.67,1.45,2.67-1.75,0,0,1.67,4.12,2.83,3.12,0,0,.63.15.9-2.93,10.88,8.57,26.14,9.84,38.03,2.05,14.99-9.83,18.9-30.34,8.75-45.82-10.15-15.47-30.53-20.05-45.51-10.22-12.12,7.95-16.99,22.88-13.05,36.49Z"/>
      <path class="cls-4" d="M325.9,340.84c-6.8,0-13.63-2.04-19.56-6.08-.23.7-.53,1.16-.95,1.45-.12.09-.25.16-.39.21-.46.26-1,.34-1.53.21-.8-.19-1.49-.87-2.06-1.71-.29.22-.6.38-.94.48-1.06.3-2.06-.14-2.59-.6-1.36-1.09-1.77-3.22-1.85-4.94-.62.12-1.22.12-1.79-.02-1.29-.31-1.94-1.18-2.15-1.51-.22-.32-.75-1.26-.53-2.57.1-.58.33-1.13.7-1.66-1.54-.77-3.33-2-3.81-3.72-.2-.61-.2-1.7.5-2.55.22-.27.49-.5.81-.67-.54-.86-.89-1.77-.75-2.58.09-.53.38-1,.8-1.32.1-.1.21-.19.33-.26.35-.21.76-.32,1.29-.32h.01c-3.05-13.94,2.5-28.1,14.27-35.82,7.59-4.98,16.73-6.61,25.73-4.59,8.98,2.02,16.75,7.43,21.87,15.24,10.59,16.14,6.47,37.63-9.18,47.9-5.53,3.63-11.87,5.42-18.23,5.42ZM305.29,330.6c.33,0,.66.11.93.32,10.67,8.41,25.24,9.2,36.27,1.97,14.27-9.36,18-28.98,8.32-43.73-4.69-7.16-11.8-12.11-20.02-13.96-8.19-1.84-16.51-.36-23.41,4.17-11.32,7.42-16.31,21.41-12.43,34.81.15.53,0,1.11-.39,1.49s-.98.52-1.5.36c-.17-.05-.33-.1-.48-.14.3.41.69.88,1.08,1.27.45.45.56,1.14.28,1.71s-.88.9-1.51.84c-.51-.05-.82-.03-.99,0,.42.83,2.38,1.91,4.02,2.43.55.17.96.65,1.04,1.23.08.58-.18,1.15-.66,1.47-1.01.66-1.49,1.37-1.23,1.8.07.09.03.01.08.12.26.35,1.1.19,2.1-.47.49-.32,1.11-.33,1.61-.03.5.3.77.86.71,1.44-.18,1.72.04,3.96.62,4.66.1-.15.25-.42.4-.92.19-.61.74-1.03,1.38-1.05.61-.01,1.22.35,1.46.94.21.51.48,1.05.74,1.5.03-.24.07-.53.1-.87.05-.55.4-1.03.9-1.25.19-.08.4-.12.6-.12ZM304.58,333.54s.08.01.12.02h0s-.08-.02-.12-.02Z"/>
    </g>
    <g>
      <path class="cls-3" d="M290.79,220.71s-7.72,1.06-12.86,6"/>
      <path class="cls-4" d="M277.93,228.22c-.4,0-.79-.15-1.09-.46-.58-.6-.56-1.55.04-2.13,5.44-5.23,13.36-6.36,13.7-6.41.81-.11,1.58.46,1.7,1.29.11.82-.46,1.58-1.29,1.7-.07,0-7.31,1.06-12.02,5.59-.29.28-.67.42-1.04.42Z"/>
    </g>
    <g>
      <path class="cls-3" d="M378.49,239.09s6.54,4.15,9.56,10.44"/>
      <path class="cls-4" d="M386.7,250.19c-2.79-5.81-8.95-9.78-9.01-9.82l1.61-2.54c.28.18,6.94,4.46,10.11,11.06l-2.72,1.3Z"/>
    </g>
    <g>
      <path class="cls-3" d="M295.7,317.98s1.07,5.91,7.45,11.45"/>
      <path class="cls-4" d="M302.17,330.57c-6.7-5.82-7.9-12.06-7.95-12.32l2.96-.54-1.48.27,1.48-.27c.01.05,1.1,5.51,6.96,10.59l-1.97,2.27Z"/>
    </g>
  </g>
  <path class="cls-5" d="M322.47,458.66h-1.41s.01-3.01.01-3.01h1.4s1.6,0,1.6,0l.02,3.01h-1.62ZM318.03,458.63c-1.01-.01-2.02-.03-3.03-.06l.07-3.01c1,.02,2,.04,3,.06l-.04,3.01ZM327.11,458.62l-.05-3.01c1-.02,2-.04,2.99-.06l.08,3.01c-1,.03-2.01.05-3.02.06ZM311.97,458.48c-1.01-.04-2.02-.08-3.03-.12l.14-3.01c1,.04,2,.08,3,.12l-.11,3.01ZM333.16,458.47l-.11-3.01c1-.04,2-.08,2.99-.12l.14,3.01c-1.01.05-2.02.09-3.03.12ZM305.92,458.2c-1.01-.06-2.02-.12-3.02-.18l.19-3.01c1,.06,1.99.13,2.99.18l-.17,3.01ZM339.21,458.19l-.17-3.01c1-.05,1.99-.12,2.99-.18l.2,3.01c-1.01.07-2.01.13-3.02.19ZM299.87,457.81c-1.01-.08-2.01-.16-3.02-.25l.26-3c.99.08,1.99.17,2.99.24l-.23,3ZM345.25,457.79l-.23-3c1-.08,1.99-.16,2.99-.25l.26,3c-1,.09-2.01.17-3.02.25ZM293.84,457.29c-1.01-.1-2.01-.2-3.01-.31l.32-2.99c.99.1,1.99.21,2.98.3l-.29,3ZM351.28,457.27l-.29-3c1-.1,1.99-.2,2.98-.31l.32,2.99c-1,.11-2.01.21-3.01.31ZM287.82,456.64c-1-.12-2-.24-3-.37l.38-2.99c.99.13,1.98.25,2.98.37l-.35,2.99ZM357.31,456.62l-.35-2.99c.99-.12,1.98-.24,2.97-.37l.39,2.99c-1,.13-2,.25-3.01.37ZM281.81,455.87c-1-.14-2-.28-3-.43l.45-2.98c.99.15,1.98.29,2.97.43l-.41,2.98ZM363.32,455.84l-.42-2.98c.99-.14,1.98-.28,2.97-.43l.45,2.98c-1,.15-2,.3-3,.43ZM275.82,454.98c-1-.16-1.99-.32-2.99-.5l.51-2.97c.98.17,1.97.33,2.96.49l-.48,2.97ZM369.31,454.94l-.48-2.97c.99-.16,1.97-.32,2.96-.49l.51,2.97c-.99.17-1.99.34-2.99.5ZM269.84,453.95c-.99-.18-1.99-.37-2.98-.56l.57-2.96c.98.19,1.96.37,2.95.55l-.54,2.96ZM375.28,453.92l-.54-2.96c.98-.18,1.97-.36,2.94-.55l.57,2.96c-.99.19-1.98.38-2.98.56ZM263.9,452.81c-.99-.2-1.98-.41-2.96-.62l.63-2.94c.98.21,1.95.41,2.93.61l-.6,2.95ZM381.22,452.77l-.6-2.95c.98-.2,1.96-.41,2.93-.62l.64,2.94c-.99.21-1.97.42-2.96.62ZM257.97,451.53c-.99-.22-1.97-.45-2.95-.68l.69-2.93c.97.23,1.95.46,2.92.68l-.67,2.94ZM387.15,451.49l-.67-2.94c.98-.22,1.95-.45,2.92-.68l.7,2.93c-.98.23-1.96.46-2.95.69ZM252.08,450.13c-.98-.25-1.96-.49-2.94-.75l.76-2.91c.96.25,1.93.5,2.9.74l-.73,2.92ZM393.04,450.08l-.73-2.92c.97-.24,1.94-.49,2.9-.74l.76,2.91c-.98.25-1.95.51-2.94.75ZM246.22,448.6c-.98-.27-1.95-.54-2.92-.81l.82-2.9c.96.27,1.92.54,2.89.8l-.79,2.91ZM398.9,448.55l-.79-2.91c.96-.26,1.93-.53,2.89-.81l.83,2.9c-.97.28-1.94.55-2.92.82ZM240.39,446.94c-.97-.29-1.94-.58-2.9-.88l.89-2.88c.95.29,1.91.58,2.87.87l-.86,2.89ZM404.73,446.89l-.86-2.89c.96-.29,1.91-.58,2.87-.87l.89,2.88c-.96.3-1.93.59-2.9.88ZM234.6,445.16c-.96-.31-1.92-.62-2.88-.94l.95-2.86c.95.32,1.89.63,2.85.93l-.92,2.87ZM410.52,445.09l-.92-2.87c.95-.31,1.9-.62,2.85-.93l.95,2.86c-.96.32-1.92.63-2.88.94ZM228.85,443.24c-.96-.33-1.91-.67-2.86-1.01l1.02-2.84c.94.34,1.88.67,2.82,1l-.98,2.85ZM416.27,443.17l-.98-2.85c.94-.33,1.89-.66,2.82-1l1.02,2.84c-.95.34-1.9.68-2.86,1.01ZM223.14,441.19c-.95-.35-1.89-.71-2.84-1.07l1.08-2.81c.93.36,1.87.71,2.8,1.06l-1.05,2.82ZM421.97,441.13l-1.05-2.82c.94-.35,1.87-.7,2.8-1.06l1.08,2.81c-.94.36-1.89.72-2.84,1.07ZM217.49,439.02c-.94-.37-1.88-.75-2.81-1.14l1.15-2.79c.92.38,1.85.75,2.78,1.12l-1.11,2.8ZM427.62,438.95l-1.11-2.8c.93-.37,1.85-.75,2.78-1.12l1.15,2.78c-.93.38-1.87.76-2.81,1.14ZM211.88,436.72c-.93-.4-1.86-.8-2.78-1.2l1.21-2.76c.91.4,1.83.8,2.75,1.19l-1.18,2.77ZM433.23,436.64l-1.18-2.77c.92-.39,1.84-.79,2.75-1.19l1.21,2.76c-.92.4-1.85.81-2.78,1.2ZM206.33,434.28c-.92-.42-1.84-.84-2.75-1.27l1.27-2.73c.9.42,1.81.84,2.72,1.25l-1.24,2.74ZM438.78,434.2l-1.24-2.74c.91-.41,1.82-.83,2.72-1.25l1.27,2.73c-.91.43-1.83.85-2.75,1.27ZM200.84,431.72c-.91-.44-1.82-.88-2.72-1.33l1.34-2.7c.89.44,1.79.88,2.69,1.32l-1.31,2.71ZM444.27,431.64l-1.31-2.71c.9-.44,1.8-.87,2.69-1.32l1.34,2.7c-.9.45-1.81.89-2.72,1.33ZM195.4,429.02c-.9-.46-1.8-.93-2.69-1.4l1.4-2.66c.88.46,1.77.92,2.66,1.38l-1.37,2.68ZM449.7,428.94l-1.37-2.68c.89-.46,1.78-.92,2.66-1.38l1.4,2.66c-.89.47-1.79.94-2.69,1.4ZM190.04,426.2c-.89-.48-1.78-.97-2.66-1.46l1.47-2.63c.87.49,1.75.97,2.62,1.44l-1.44,2.65ZM455.06,426.11l-1.44-2.64c.88-.48,1.75-.96,2.62-1.45l1.47,2.63c-.88.49-1.77.98-2.65,1.46ZM184.75,423.24c-.88-.5-1.75-1.01-2.62-1.53l1.53-2.59c.86.51,1.72,1.01,2.59,1.51l-1.5,2.61ZM460.35,423.15l-1.5-2.61c.87-.5,1.73-1,2.59-1.51l1.54,2.59c-.87.51-1.74,1.03-2.62,1.53ZM179.53,420.15c-.86-.53-1.72-1.06-2.58-1.59l1.6-2.55c.85.53,1.7,1.05,2.55,1.57l-1.57,2.57ZM465.57,420.05l-1.57-2.57c.85-.52,1.7-1.05,2.55-1.57l1.6,2.55c-.85.54-1.71,1.07-2.58,1.6ZM174.39,416.93c-.85-.55-1.7-1.1-2.54-1.66l1.66-2.51c.83.55,1.67,1.1,2.51,1.64l-1.63,2.53ZM470.71,416.83l-1.63-2.53c.84-.54,1.67-1.09,2.5-1.64l1.67,2.51c-.84.56-1.69,1.11-2.54,1.66ZM169.33,413.58c-.84-.57-1.67-1.15-2.49-1.72l1.73-2.47c.82.57,1.64,1.14,2.46,1.7l-1.7,2.49ZM475.76,413.48l-1.69-2.49c.83-.56,1.65-1.13,2.46-1.7l1.73,2.46c-.83.58-1.66,1.16-2.5,1.73ZM164.36,410.1c-.82-.59-1.64-1.19-2.45-1.79l1.79-2.42c.8.59,1.61,1.18,2.42,1.77l-1.76,2.44ZM480.72,409.99l-1.76-2.44c.81-.59,1.61-1.17,2.41-1.77l1.8,2.42c-.81.6-1.63,1.2-2.45,1.79ZM159.49,406.49c-.81-.61-1.61-1.23-2.4-1.86l1.86-2.37c.78.61,1.57,1.23,2.37,1.83l-1.83,2.4ZM485.59,406.37l-1.83-2.39c.79-.61,1.58-1.22,2.37-1.83l1.86,2.37c-.79.62-1.59,1.24-2.4,1.86ZM154.72,402.75c-.79-.64-1.57-1.28-2.35-1.92l1.92-2.32c.77.64,1.54,1.27,2.32,1.89l-1.89,2.34ZM490.37,402.62l-1.89-2.34c.78-.63,1.55-1.26,2.31-1.9l1.93,2.32c-.78.65-1.56,1.29-2.35,1.92ZM150.05,398.87c-.77-.66-1.54-1.32-2.29-1.99l1.99-2.26c.75.66,1.5,1.31,2.26,1.96l-1.95,2.29ZM495.03,398.75l-1.96-2.29c.76-.65,1.51-1.3,2.26-1.96l1.99,2.26c-.76.67-1.52,1.33-2.29,1.99ZM145.49,394.87c-.75-.68-1.5-1.36-2.24-2.05l2.05-2.21c.73.68,1.46,1.35,2.21,2.02l-2.02,2.23ZM499.59,394.74l-2.02-2.23c.74-.67,1.48-1.35,2.2-2.02l2.05,2.2c-.74.69-1.48,1.37-2.24,2.05ZM141.04,390.73c-.73-.7-1.46-1.41-2.18-2.11l2.12-2.14c.71.7,1.42,1.39,2.14,2.09l-2.08,2.17ZM504.03,390.6l-2.08-2.17c.72-.69,1.43-1.39,2.14-2.09l2.12,2.14c-.72.71-1.44,1.42-2.17,2.12ZM136.72,386.47c-.71-.72-1.42-1.45-2.11-2.18l2.18-2.08c.69.72,1.38,1.43,2.08,2.14l-2.14,2.11ZM508.35,386.33l-2.15-2.11c.7-.71,1.39-1.43,2.08-2.15l2.18,2.08c-.7.73-1.4,1.46-2.11,2.18ZM132.53,382.08c-.69-.74-1.37-1.49-2.05-2.24l2.24-2.01c.67.74,1.34,1.48,2.02,2.21l-2.21,2.05ZM512.54,381.94l-2.21-2.04c.68-.73,1.35-1.47,2.01-2.21l2.24,2.01c-.67.75-1.36,1.5-2.04,2.24ZM128.47,377.56c-.67-.76-1.32-1.53-1.98-2.3l2.3-1.94c.64.76,1.29,1.52,1.95,2.27l-2.27,1.98ZM516.59,377.42l-2.27-1.97c.65-.75,1.3-1.51,1.94-2.27l2.3,1.94c-.65.77-1.31,1.54-1.97,2.31ZM124.55,372.92c-.64-.78-1.28-1.57-1.9-2.37l2.36-1.87c.62.78,1.24,1.56,1.87,2.33l-2.33,1.91ZM520.5,372.77l-2.33-1.9c.63-.77,1.25-1.55,1.87-2.33l2.36,1.87c-.63.79-1.26,1.58-1.9,2.37ZM120.78,368.16c-.62-.8-1.22-1.61-1.83-2.43l2.42-1.79c.59.8,1.19,1.6,1.8,2.39l-2.39,1.83ZM524.27,368l-2.4-1.83c.61-.79,1.2-1.59,1.8-2.39l2.42,1.79c-.6.81-1.21,1.62-1.82,2.43ZM117.17,363.28c-.59-.82-1.17-1.65-1.75-2.49l2.48-1.71c.56.82,1.14,1.63,1.72,2.44l-2.45,1.75ZM527.88,363.12l-2.45-1.75c.58-.81,1.15-1.63,1.71-2.45l2.48,1.71c-.57.83-1.15,1.66-1.74,2.49ZM113.72,358.28c-.56-.85-1.12-1.69-1.66-2.55l2.54-1.62c.54.84,1.08,1.67,1.63,2.5l-2.51,1.67ZM531.32,358.11l-2.51-1.67c.55-.83,1.1-1.66,1.63-2.5l2.54,1.62c-.55.85-1.1,1.7-1.66,2.55ZM110.44,353.16c-.53-.86-1.06-1.73-1.57-2.6l2.59-1.54c.51.86,1.02,1.71,1.55,2.55l-2.56,1.58ZM534.59,352.99l-2.56-1.58c.52-.85,1.04-1.7,1.54-2.56l2.59,1.53c-.51.87-1.04,1.74-1.57,2.6ZM107.33,347.92c-.5-.88-1-1.77-1.49-2.66l2.64-1.45c.48.88.97,1.75,1.46,2.62l-2.62,1.49ZM537.69,347.76l-2.62-1.49c.49-.87.98-1.74,1.45-2.61l2.64,1.44c-.48.89-.98,1.77-1.48,2.65ZM104.4,342.57c-.47-.9-.94-1.81-1.39-2.71l2.69-1.35c.45.89.9,1.78,1.36,2.66l-2.67,1.4ZM540.6,342.43l-2.67-1.39c.46-.88.91-1.77,1.36-2.66l2.69,1.35c-.45.91-.91,1.81-1.38,2.71ZM101.68,337.12c-.44-.92-.87-1.84-1.29-2.76l2.74-1.25c.41.91.84,1.81,1.27,2.71l-2.72,1.3ZM543.32,336.99l-2.72-1.3c.43-.89.85-1.79,1.26-2.69l2.74,1.25c-.42.92-.84,1.83-1.28,2.74ZM99.15,331.58c-.4-.93-.8-1.87-1.19-2.8l2.78-1.15c.38.92.77,1.84,1.16,2.75l-2.76,1.2ZM545.83,331.48l-2.76-1.2c.4-.91.78-1.82,1.16-2.74l2.79,1.15c-.38.93-.78,1.87-1.18,2.79ZM96.83,325.95c-.37-.94-.73-1.89-1.08-2.84l2.83-1.04c.34.93.7,1.86,1.06,2.79l-2.81,1.1ZM548.14,325.87l-2.81-1.09c.36-.93.71-1.85,1.05-2.79l2.83,1.04c-.35.95-.71,1.89-1.07,2.84ZM94.72,320.25c-.33-.96-.66-1.92-.97-2.88l2.86-.93c.31.94.62,1.89.95,2.82l-2.84.99ZM550.23,320.18l-2.84-.99c.33-.94.64-1.88.95-2.82l2.86.93c-.31.96-.64,1.92-.97,2.88ZM92.84,314.47c-.3-.97-.58-1.94-.86-2.91l2.9-.82c.27.95.55,1.91.84,2.85l-2.88.88ZM552.11,314.4l-2.88-.88c.29-.95.57-1.9.84-2.86l2.9.82c-.28.97-.56,1.95-.86,2.92ZM91.18,308.64c-.26-.98-.5-1.96-.74-2.94l2.93-.71c.23.96.48,1.92.73,2.88l-2.91.77ZM553.77,308.55l-2.91-.76c.25-.96.5-1.93.73-2.89l2.93.71c-.24.99-.49,1.97-.74,2.95ZM89.75,302.75c-.22-.99-.43-1.98-.63-2.98l2.95-.59c.2.98.4,1.95.62,2.92l-2.94.65ZM555.2,302.64l-2.94-.65c.21-.97.42-1.95.62-2.92l2.95.59c-.2,1-.41,1.99-.63,2.98ZM88.55,296.78c-.18-1-.35-1.99-.51-3l2.97-.48c.16.98.33,1.96.5,2.94l-2.96.54ZM556.4,296.66l-2.96-.53c.18-.98.34-1.96.5-2.95l2.97.47c-.16,1-.33,2.01-.51,3.01ZM87.59,290.78c-.14-1-.27-2.01-.39-3.02l2.99-.36c.12.99.25,1.97.39,2.96l-2.98.42ZM557.36,290.63l-2.98-.41c.14-.99.26-1.98.38-2.97l2.99.36c-.12,1.01-.25,2.02-.39,3.03ZM86.86,284.74c-.1-1.01-.19-2.02-.27-3.03l3-.24c.08.99.17,1.98.27,2.97l-3,.3ZM558.08,284.58l-3-.3c.1-.99.19-1.98.26-2.97l3,.24c-.08,1.01-.17,2.02-.27,3.03ZM86.38,278.67c-.06-1.01-.11-2.02-.15-3.04l3.01-.12c.04.99.09,1.99.15,2.98l-3.01.18ZM558.56,278.52l-3.01-.18c.06-.99.11-1.98.15-2.98l3.01.12c-.04,1.02-.09,2.03-.15,3.04ZM86.13,272.6c-.02-1.01-.03-2.03-.03-3.04h3.01c0,.99.01,1.99.03,2.98l-3.01.06ZM558.8,272.44l-3.01-.06c.02-.99.03-1.99.03-2.98v-.31h3.01v.31c0,1.02,0,2.03-.03,3.04ZM89.14,266.57l-3.01-.05c.02-1.02.05-2.03.09-3.04l3.01.12c-.04.99-.07,1.99-.08,2.98ZM555.79,266.11c-.02-.99-.05-1.99-.09-2.98l3.01-.12c.04,1.01.07,2.02.1,3.03l-3.01.07ZM89.36,260.61l-3.01-.18c.06-1.01.13-2.02.21-3.03l3,.23c-.08.99-.14,1.98-.2,2.98ZM555.54,260.15c-.06-.99-.13-1.99-.21-2.97l3-.25c.08,1.01.15,2.02.22,3.04l-3.01.18ZM89.83,254.66l-3-.29c.1-1.01.21-2.02.33-3.02l2.99.35c-.12.99-.22,1.97-.32,2.97ZM555.06,254.21c-.1-.99-.21-1.98-.33-2.96l2.99-.36c.12,1.01.23,2.01.34,3.02l-3,.3ZM90.53,248.73l-2.98-.41c.14-1.01.29-2.01.45-3.02l2.97.47c-.16.98-.3,1.97-.44,2.96ZM554.34,248.29c-.14-.98-.29-1.97-.45-2.95l2.97-.48c.16,1,.31,2,.46,3.01l-2.98.42ZM91.47,242.82l-2.96-.53c.18-1,.37-2,.57-2.99l2.95.59c-.2.98-.38,1.95-.56,2.94ZM553.39,242.4c-.18-.98-.37-1.96-.56-2.93l2.95-.6c.2.99.39,1.99.57,2.99l-2.96.54ZM92.64,236.96l-2.94-.65c.22-.99.45-1.98.68-2.97l2.93.71c-.23.97-.46,1.94-.67,2.91ZM552.2,236.55c-.22-.97-.44-1.93-.68-2.89l2.93-.71c.24.98.47,1.96.69,2.95l-2.94.65ZM94.03,231.16l-2.91-.76c.26-.98.52-1.96.8-2.94l2.9.82c-.27.96-.53,1.92-.78,2.88ZM550.8,230.78c-.25-.96-.52-1.91-.79-2.87l2.9-.83c.28.97.55,1.95.8,2.93l-2.91.77ZM95.66,225.42l-2.88-.87c.29-.97.6-1.94.91-2.9l2.86.93c-.31.95-.6,1.89-.89,2.84ZM549.17,225.06c-.29-.95-.59-1.9-.9-2.84l2.86-.94c.31.96.62,1.93.92,2.9l-2.88.88ZM97.5,219.75l-2.85-.98c.33-.96.67-1.91,1.02-2.86l2.83,1.04c-.34.93-.68,1.87-1,2.8ZM547.31,219.39c-.33-.94-.66-1.88-1.01-2.81l2.83-1.05c.35.95.69,1.9,1.03,2.86l-2.84.99ZM99.55,214.16l-2.81-1.09c.37-.94.74-1.88,1.13-2.82l2.79,1.14c-.38.92-.75,1.84-1.1,2.76ZM545.24,213.8c-.36-.93-.73-1.85-1.11-2.77l2.78-1.15c.39.94.77,1.88,1.14,2.82l-2.81,1.1ZM101.8,208.66l-2.76-1.2c.4-.93.81-1.85,1.23-2.77l2.74,1.25c-.41.9-.81,1.81-1.2,2.72ZM542.96,208.28c-.4-.91-.8-1.82-1.22-2.73l2.74-1.25c.42.92.84,1.85,1.24,2.78l-2.76,1.2ZM104.26,203.24l-2.72-1.29c.44-.91.88-1.83,1.33-2.73l2.69,1.35c-.44.89-.88,1.79-1.31,2.68ZM540.47,202.84c-.43-.9-.87-1.8-1.32-2.69l2.69-1.35c.46.91.9,1.82,1.34,2.74l-2.72,1.3ZM106.93,197.9l-2.67-1.39c.47-.9.94-1.79,1.43-2.68l2.64,1.44c-.48.87-.94,1.75-1.4,2.64ZM537.79,197.49c-.46-.88-.94-1.76-1.42-2.64l2.64-1.45c.49.89.97,1.79,1.44,2.69l-2.67,1.4ZM109.78,192.66l-2.62-1.49c.5-.88,1.01-1.76,1.52-2.63l2.59,1.53c-.51.86-1.01,1.72-1.5,2.58ZM534.91,192.23c-.5-.87-1-1.73-1.51-2.59l2.59-1.54c.52.88,1.03,1.75,1.54,2.64l-2.61,1.49ZM112.82,187.51l-2.57-1.58c.53-.86,1.07-1.72,1.61-2.57l2.54,1.62c-.54.84-1.06,1.69-1.59,2.53ZM531.85,187.09c-.52-.85-1.06-1.69-1.6-2.53l2.54-1.63c.55.85,1.09,1.71,1.62,2.57l-2.56,1.59ZM116.04,182.48l-2.51-1.66c.56-.84,1.13-1.68,1.7-2.52l2.48,1.71c-.56.82-1.12,1.65-1.67,2.48ZM528.62,182.06c-.55-.83-1.11-1.65-1.68-2.47l2.48-1.71c.58.83,1.14,1.67,1.71,2.51l-2.51,1.67ZM119.42,177.55l-2.45-1.75c.59-.83,1.18-1.65,1.78-2.46l2.42,1.79c-.59.8-1.18,1.61-1.75,2.42ZM525.22,177.15c-.58-.81-1.16-1.61-1.76-2.41l2.42-1.79c.6.81,1.2,1.63,1.79,2.46l-2.45,1.75ZM122.97,172.74l-2.4-1.83c.61-.8,1.23-1.6,1.86-2.4l2.36,1.86c-.62.78-1.23,1.57-1.83,2.36ZM521.66,172.34c-.6-.79-1.22-1.58-1.84-2.36l2.36-1.87c.63.8,1.25,1.59,1.87,2.4l-2.39,1.83ZM126.66,168.05l-2.34-1.9c.64-.78,1.28-1.56,1.94-2.34l2.31,1.94c-.64.76-1.28,1.53-1.91,2.3ZM517.95,167.66c-.63-.77-1.27-1.54-1.91-2.3l2.3-1.95c.65.77,1.3,1.55,1.94,2.33l-2.33,1.91ZM130.51,163.47l-2.27-1.97c.66-.76,1.33-1.52,2.01-2.28l2.24,2.01c-.67.74-1.33,1.49-1.98,2.24ZM514.09,163.09c-.65-.75-1.31-1.5-1.98-2.24l2.24-2.02c.68.75,1.35,1.51,2.01,2.27l-2.27,1.98ZM134.5,159.02l-2.21-2.04c.69-.74,1.38-1.48,2.08-2.21l2.18,2.08c-.69.72-1.37,1.45-2.04,2.18ZM510.09,158.65c-.68-.73-1.36-1.46-2.05-2.18l2.18-2.08c.7.73,1.4,1.47,2.08,2.21l-2.21,2.05ZM138.63,154.68l-2.15-2.11c.71-.72,1.42-1.44,2.14-2.15l2.12,2.14c-.71.7-1.41,1.41-2.11,2.12ZM505.96,154.33c-.7-.71-1.4-1.41-2.12-2.11l2.11-2.14c.72.71,1.44,1.43,2.15,2.15l-2.14,2.11ZM142.88,150.48l-2.09-2.17c.73-.7,1.46-1.4,2.2-2.09l2.05,2.2c-.73.68-1.45,1.37-2.17,2.06ZM501.69,150.13c-.72-.69-1.44-1.37-2.17-2.05l2.05-2.21c.74.69,1.48,1.38,2.21,2.08l-2.08,2.17ZM147.25,146.39l-2.02-2.23c.75-.68,1.5-1.35,2.26-2.02l1.99,2.26c-.75.66-1.49,1.32-2.23,1.99ZM497.31,146.06c-.74-.67-1.48-1.33-2.24-1.99l1.99-2.26c.76.67,1.52,1.34,2.27,2.02l-2.02,2.24ZM151.74,142.44l-1.96-2.29c.77-.66,1.54-1.31,2.32-1.96l1.93,2.31c-.77.64-1.53,1.28-2.29,1.93ZM492.82,142.12c-.76-.65-1.52-1.29-2.29-1.93l1.92-2.32c.78.65,1.55,1.3,2.32,1.95l-1.95,2.29ZM156.34,138.61l-1.89-2.34c.78-.64,1.58-1.27,2.37-1.89l1.86,2.37c-.79.62-1.57,1.24-2.34,1.87ZM488.2,138.3c-.78-.62-1.56-1.25-2.34-1.86l1.86-2.37c.8.62,1.59,1.25,2.38,1.89l-1.89,2.34ZM161.04,134.91l-1.83-2.39c.8-.61,1.61-1.22,2.42-1.83l1.8,2.42c-.8.6-1.6,1.2-2.39,1.8ZM483.49,134.61c-.79-.6-1.59-1.2-2.39-1.8l1.79-2.42c.81.6,1.62,1.21,2.43,1.82l-1.83,2.4ZM165.85,131.34l-1.76-2.44c.82-.59,1.64-1.18,2.47-1.76l1.73,2.46c-.82.57-1.63,1.15-2.44,1.74ZM478.68,131.05c-.81-.58-1.62-1.16-2.44-1.73l1.73-2.47c.83.58,1.65,1.17,2.47,1.76l-1.76,2.44ZM170.74,127.89l-1.7-2.49c.83-.57,1.67-1.13,2.51-1.7l1.67,2.51c-.83.55-1.66,1.11-2.48,1.67ZM473.78,127.61c-.82-.56-1.65-1.12-2.48-1.67l1.66-2.51c.85.56,1.69,1.12,2.52,1.69l-1.7,2.49ZM175.73,124.58l-1.64-2.53c.85-.55,1.7-1.09,2.56-1.63l1.6,2.55c-.85.53-1.69,1.07-2.52,1.61ZM468.79,124.31c-.84-.54-1.68-1.07-2.53-1.6l1.6-2.55c.86.54,1.71,1.08,2.56,1.62l-1.63,2.53ZM180.8,121.39l-1.57-2.57c.86-.53,1.73-1.05,2.6-1.56l1.54,2.59c-.86.51-1.72,1.03-2.57,1.55ZM463.71,121.14c-.85-.52-1.71-1.03-2.57-1.54l1.53-2.59c.87.51,1.74,1.03,2.6,1.56l-1.56,2.57ZM185.95,118.34l-1.5-2.61c.87-.5,1.75-1,2.64-1.5l1.47,2.63c-.87.49-1.74.98-2.6,1.48ZM458.55,118.09c-.87-.5-1.74-.99-2.61-1.48l1.47-2.63c.88.49,1.76.99,2.64,1.49l-1.5,2.61ZM191.17,115.41l-1.44-2.64c.89-.48,1.78-.96,2.67-1.43l1.41,2.66c-.88.47-1.76.94-2.64,1.42ZM453.32,115.17c-.88-.47-1.76-.95-2.64-1.41l1.4-2.66c.9.47,1.79.95,2.67,1.43l-1.43,2.65ZM196.47,112.61l-1.37-2.68c.9-.46,1.8-.92,2.71-1.37l1.34,2.7c-.9.45-1.79.9-2.67,1.35ZM448.02,112.39c-.89-.45-1.78-.9-2.68-1.35l1.34-2.7c.91.45,1.81.9,2.71,1.36l-1.37,2.68ZM201.83,109.94l-1.31-2.71c.91-.44,1.82-.87,2.74-1.3l1.28,2.73c-.91.42-1.81.85-2.71,1.29ZM442.65,109.72c-.9-.43-1.8-.86-2.71-1.28l1.27-2.73c.92.43,1.83.86,2.74,1.3l-1.31,2.71ZM207.26,107.4l-1.25-2.74c.92-.42,1.84-.83,2.77-1.24l1.21,2.76c-.92.4-1.83.81-2.73,1.22ZM437.22,107.19c-.91-.41-1.82-.82-2.74-1.22l1.21-2.76c.93.4,1.85.82,2.77,1.23l-1.24,2.74ZM212.74,104.99l-1.18-2.77c.93-.4,1.86-.79,2.79-1.17l1.15,2.78c-.92.38-1.85.77-2.76,1.16ZM431.73,104.79c-.92-.39-1.84-.77-2.76-1.15l1.14-2.79c.94.38,1.87.77,2.8,1.17l-1.18,2.77ZM218.28,102.7l-1.12-2.8c.94-.37,1.88-.74,2.82-1.11l1.08,2.81c-.93.36-1.86.72-2.79,1.09ZM426.19,102.52c-.93-.37-1.86-.73-2.79-1.09l1.08-2.81c.95.36,1.89.73,2.82,1.1l-1.11,2.8ZM223.87,100.55l-1.05-2.82c.95-.35,1.89-.7,2.84-1.04l1.02,2.83c-.94.34-1.88.68-2.81,1.03ZM420.6,100.37c-.94-.35-1.87-.69-2.82-1.03l1.02-2.84c.95.34,1.9.69,2.85,1.04l-1.05,2.82ZM229.51,98.52l-.99-2.84c.95-.33,1.91-.66,2.87-.98l.95,2.86c-.95.32-1.9.64-2.84.97ZM414.95,98.35c-.94-.32-1.89-.65-2.84-.96l.95-2.86c.96.32,1.92.64,2.87.97l-.98,2.85ZM235.19,96.62l-.92-2.87c.96-.31,1.92-.61,2.89-.91l.89,2.88c-.95.3-1.91.6-2.86.9ZM409.27,96.46c-.95-.3-1.9-.6-2.86-.9l.89-2.88c.97.3,1.93.6,2.89.91l-.92,2.87ZM240.92,94.84l-.86-2.89c.97-.29,1.94-.57,2.91-.85l.83,2.9c-.96.27-1.92.55-2.88.84ZM403.54,94.7c-.96-.28-1.91-.56-2.88-.83l.82-2.9c.97.28,1.94.56,2.91.84l-.86,2.89ZM246.68,93.19l-.79-2.91c.97-.27,1.95-.53,2.92-.78l.77,2.91c-.97.25-1.93.51-2.9.78ZM397.77,93.06c-.96-.26-1.93-.52-2.9-.77l.76-2.91c.98.25,1.95.51,2.93.78l-.79,2.91ZM252.47,91.67l-.73-2.92c.98-.25,1.96-.49,2.94-.72l.7,2.93c-.97.23-1.94.47-2.91.71ZM391.97,91.55c-.97-.24-1.94-.48-2.91-.71l.7-2.93c.98.23,1.97.47,2.94.71l-.73,2.92ZM258.3,90.28l-.67-2.94c.98-.22,1.97-.44,2.96-.66l.64,2.94c-.98.21-1.95.43-2.93.65ZM386.14,90.17c-.97-.22-1.95-.43-2.92-.64l.63-2.94c.99.21,1.98.43,2.96.65l-.67,2.94ZM264.16,89.01l-.61-2.95c.99-.2,1.98-.4,2.97-.59l.57,2.96c-.98.19-1.96.39-2.94.59ZM380.28,88.91c-.98-.2-1.96-.39-2.94-.58l.57-2.96c.99.19,1.98.39,2.97.59l-.6,2.95ZM270.05,87.87l-.54-2.96c.99-.18,1.98-.36,2.98-.53l.51,2.97c-.99.17-1.97.35-2.95.53ZM374.4,87.78c-.98-.18-1.97-.35-2.95-.52l.51-2.97c1,.17,1.99.35,2.98.52l-.54,2.96ZM275.95,86.85l-.48-2.97c1-.16,1.99-.32,2.99-.47l.45,2.98c-.99.15-1.98.3-2.96.46ZM368.49,86.77c-.98-.16-1.97-.31-2.96-.46l.44-2.98c1,.15,2,.3,2.99.46l-.47,2.97ZM281.88,85.96l-.42-2.98c1-.14,2-.28,3-.4l.39,2.99c-.99.13-1.98.26-2.97.4ZM362.56,85.89c-.99-.14-1.98-.27-2.97-.4l.38-2.99c1,.13,2,.26,3,.4l-.41,2.98ZM287.83,85.19l-.36-2.99c1-.12,2.01-.23,3.01-.34l.32,2.99c-1,.11-1.99.22-2.98.34ZM356.61,85.13c-.99-.12-1.99-.23-2.98-.33l.32-2.99c1,.11,2.01.22,3.01.34l-.35,2.99ZM293.79,84.54l-.29-3c1-.1,2.01-.19,3.02-.28l.26,3c-1,.09-1.99.18-2.98.28ZM350.65,84.49c-.99-.09-1.99-.19-2.99-.27l.26-3c1.01.09,2.01.18,3.01.27l-.29,3ZM299.76,84.02l-.23-3c1.01-.08,2.01-.15,3.02-.22l.2,3.01c-1,.07-1.99.14-2.99.21ZM344.68,83.98c-1-.07-1.99-.15-2.99-.21l.2-3.01c1.01.07,2.01.14,3.02.21l-.22,3ZM305.74,83.62l-.17-3.01c1.01-.06,2.01-.11,3.03-.15l.14,3.01c-1,.05-2,.1-2.99.15ZM338.69,83.59c-1-.05-1.99-.1-3-.15l.14-3.01c1.01.05,2.02.1,3.02.15l-.16,3.01ZM311.73,83.34l-.11-3.01c1.01-.04,2.02-.07,3.03-.09l.08,3.01c-1,.03-2,.06-3,.09ZM332.7,83.33c-1-.03-1.99-.06-3-.09l.07-3.01c1.01.03,2.02.05,3.03.09l-.1,3.01ZM317.72,83.19l-.05-3.01c1.01-.02,2.01-.03,3.02-.03l.02,3.01c-1,0-2,.02-3,.03ZM326.71,83.18c-1-.01-2-.02-3-.03v-3.01c1.02,0,2.03.01,3.04.03l-.05,3.01Z"/>
  <path class="cls-8" d="M210.09,277.81h-72.91c-.55,0-1-.45-1-1s.45-1,1-1h72.91c.55,0,1,.45,1,1s-.45,1-1,1Z"/>
  <path class="cls-8" d="M201.01,290.93h-78.73c-.55,0-1-.45-1-1s.45-1,1-1h78.73c.55,0,1,.45,1,1s-.45,1-1,1Z"/>
  <path class="cls-8" d="M193.62,304.06h-56.45c-.55,0-1-.45-1-1s.45-1,1-1h56.45c.55,0,1,.45,1,1s-.45,1-1,1Z"/>
  <path class="cls-8" d="M504.12,277.81h-65.13c-.55,0-1-.45-1-1s.45-1,1-1h65.13c.55,0,1,.45,1,1s-.45,1-1,1Z"/>
  <path class="cls-8" d="M512.41,290.93h-98.11c-.55,0-1-.45-1-1s.45-1,1-1h98.11c.55,0,1,.45,1,1s-.45,1-1,1Z"/>
  <path class="cls-8" d="M495.44,304.06h-77.88c-.55,0-1-.45-1-1s.45-1,1-1h77.88c.55,0,1,.45,1,1s-.45,1-1,1Z"/>
  <g>
    <path class="cls-7" d="M145.09,359.25c-1.78,1.35-3.62,1.97-5.51,1.85-1.89-.12-3.42-.95-4.6-2.5-1.16-1.53-1.55-3.22-1.15-5.09.39-1.86,1.48-3.47,3.25-4.82,1.8-1.36,3.63-1.99,5.52-1.86s3.41.95,4.59,2.5c1.17,1.54,1.56,3.24,1.16,5.1s-1.48,3.46-3.26,4.81ZM136.35,357.56c.83,1.09,1.9,1.64,3.22,1.63,1.31,0,2.71-.57,4.18-1.69s2.39-2.31,2.75-3.57c.36-1.26.13-2.44-.7-3.54-.83-1.1-1.9-1.65-3.21-1.64s-2.7.58-4.18,1.71c-1.47,1.12-2.39,2.31-2.75,3.57-.36,1.26-.13,2.44.7,3.53Z"/>
    <path class="cls-7" d="M140.32,369.57l1.97,2.18c.21.23.31.45.3.67s-.12.42-.34.62c-.24.21-.45.31-.65.28s-.43-.18-.68-.46l-3.62-4.01c-.22-.24-.33-.48-.33-.7,0-.22.1-.43.31-.62.24-.22.48-.3.72-.23.24.07.54.31.92.73l.16.17,9.44-8.53-.16-.17c-.38-.42-.59-.75-.63-.99-.04-.24.06-.47.3-.69.21-.19.43-.27.65-.25s.44.16.66.41l1.25,1.38c.16.18.25.34.27.48.01.14-.04.26-.17.38l-.88.8c.8.03,1.53.2,2.19.5.66.31,1.26.75,1.78,1.33,1.1,1.22,1.61,2.61,1.52,4.17-.08,1.56-.75,2.91-1.99,4.03-1.19,1.08-2.53,1.58-4,1.5-1.47-.08-2.75-.72-3.84-1.93-.58-.64-1-1.34-1.26-2.08-.26-.75-.34-1.49-.25-2.24l-3.63,3.28ZM146.52,369.09c.76.84,1.65,1.29,2.67,1.35,1.02.06,1.95-.29,2.79-1.05.82-.75,1.26-1.63,1.31-2.66.05-1.03-.31-1.96-1.07-2.79-.76-.84-1.64-1.28-2.66-1.33s-1.94.3-2.77,1.05c-.84.76-1.28,1.64-1.34,2.65-.05,1.01.3,1.94,1.06,2.78Z"/>
    <path class="cls-7" d="M155.62,373.81c-.76.9-1.1,1.84-1.01,2.81.09.97.6,1.89,1.52,2.76.7.66,1.63,1.18,2.8,1.59,1.17.4,1.84.68,2.01.85.18.17.27.36.29.59.01.23-.06.42-.22.59-.16.17-.37.27-.63.3s-.59-.02-.99-.15c-.87-.27-1.69-.63-2.47-1.07-.78-.44-1.48-.96-2.1-1.55-1.36-1.28-2.07-2.69-2.15-4.24-.08-1.55.49-2.97,1.71-4.26,1.24-1.31,2.67-1.97,4.3-1.97,1.63,0,3.14.65,4.52,1.95,1.25,1.18,1.94,2.54,2.05,4.08.11,1.54-.35,2.85-1.37,3.93-.31.33-.59.49-.84.47s-.68-.32-1.3-.9l-.13-.13-5.99-5.65ZM156.77,372.68l5.81,5.47c.58-.79.82-1.64.72-2.54-.1-.9-.51-1.7-1.24-2.39-.79-.75-1.65-1.16-2.59-1.26-.93-.09-1.83.15-2.7.72Z"/>
    <path class="cls-7" d="M163.77,385.86l4.94-6.11-.18-.15c-.43-.35-.69-.64-.77-.87-.08-.23-.02-.48.19-.73.19-.23.39-.35.61-.35.22,0,.48.12.78.37l.45.36.91.74c.17.14.28.28.31.43.04.15,0,.28-.09.4l-.52.65c.81-.06,1.53,0,2.15.16.62.16,1.18.44,1.67.84.96.78,1.47,1.68,1.54,2.73.07,1.04-.33,2.09-1.18,3.14l-3.49,4.32.45.36c.32.26.51.5.56.72s0,.44-.19.67c-.2.25-.42.36-.65.35-.23-.02-.54-.18-.92-.49l-2.11-1.71c-.41-.33-.63-.59-.67-.78-.04-.19.05-.41.27-.68.2-.25.41-.36.62-.35.21.01.5.17.87.47l.34.27,3.21-3.96c.6-.74.89-1.45.87-2.11s-.35-1.25-1-1.78c-.65-.53-1.4-.77-2.25-.73-.85.04-1.54.38-2.06,1.03l-3.21,3.96.33.27c.38.31.6.56.66.77.06.2-.02.43-.22.68-.22.27-.42.4-.61.4-.19,0-.51-.18-.95-.54l-1.73-1.4-.51-.42c-.26-.21-.41-.42-.45-.64-.04-.22.03-.44.22-.68.21-.25.42-.37.64-.34s.55.22.98.57l.2.16Z"/>
    <path class="cls-7" d="M194.42,407.31c.29.17.47.37.54.58.08.22.04.45-.11.69-.15.25-.34.4-.56.44-.22.04-.47-.02-.74-.19l-6.87-4.13c-.29-.17-.47-.37-.54-.58s-.04-.45.12-.7c.15-.25.33-.39.55-.43.22-.04.47.02.74.19l1.79,1.07,3.86-6.42-1.72-1.04c-.29-.17-.47-.37-.55-.6-.08-.23-.04-.46.1-.71.15-.25.34-.4.56-.43s.47.03.75.2l1.66,1,.43-.71c.76-1.27,1.68-1.97,2.74-2.11,1.06-.14,2.4.28,4.01,1.25.78.47,1.31.91,1.58,1.31.27.4.29.79.07,1.16-.13.22-.32.35-.56.39s-.49-.01-.75-.16c-.13-.08-.4-.3-.83-.67s-.81-.66-1.16-.87c-.79-.48-1.46-.65-2-.52-.54.13-1.05.57-1.51,1.34l-.36.6,3.72,2.24c.29.17.47.37.54.58.08.22.04.45-.11.7-.14.24-.33.38-.57.42-.24.04-.49-.01-.75-.17l-3.63-2.19-3.86,6.42,3.42,2.06Z"/>
    <path class="cls-7" d="M211.38,411.93c-.8,1.55-1.99,2.55-3.56,2.99-1.57.44-3.2.22-4.89-.65-1.68-.87-2.8-2.07-3.35-3.61-.55-1.53-.42-3.08.38-4.63.8-1.55,1.99-2.55,3.56-2.98,1.57-.44,3.19-.22,4.88.65,1.68.87,2.8,2.07,3.36,3.61.55,1.54.43,3.08-.37,4.62ZM203.72,412.74c1.12.58,2.22.7,3.3.36,1.08-.34,1.9-1.05,2.47-2.15.56-1.09.67-2.18.32-3.27-.35-1.08-1.08-1.91-2.19-2.49-1.11-.57-2.21-.69-3.29-.34-1.08.34-1.91,1.06-2.47,2.16-.57,1.1-.68,2.19-.33,3.26.35,1.07,1.08,1.89,2.2,2.47Z"/>
    <path class="cls-7" d="M215.84,418.23l3.72,1.64c.29.13.48.28.56.47.08.18.07.41-.05.68-.14.31-.29.49-.48.55-.18.06-.45,0-.8-.15l-7.33-3.23c-.29-.13-.48-.29-.57-.49-.09-.2-.08-.44.04-.7.11-.26.28-.42.49-.48.21-.06.47-.02.8.12l1.95.86,3.17-7.2-.76-.34c-.73-.32-1.15-.58-1.28-.77-.13-.19-.13-.44,0-.75.11-.26.27-.42.48-.49.2-.07.45-.03.75.1l2.56,1.13c.2.09.34.2.41.32.07.12.07.26,0,.41l-.84,1.91c1.1-.58,2.13-.91,3.09-1.01.96-.09,1.89.05,2.78.45.67.29,1.15.66,1.44,1.11.29.45.35.88.16,1.31-.12.28-.33.47-.63.6-.3.12-.57.13-.82.02-.17-.08-.41-.32-.72-.73-.31-.41-.62-.68-.94-.82-.58-.26-1.29-.32-2.12-.19-.83.13-1.84.47-3.02,1.02l-2.05,4.65Z"/>
    <path class="cls-7" d="M238.72,428.04l.64-2.09c.11-.34.25-.57.42-.68s.41-.12.7-.03c.32.1.51.4.56.89.04.3.1.54.16.7.2.52.58,1.01,1.14,1.46.56.45,1.23.79,2,1.03.83.25,1.54.29,2.15.11.6-.18.99-.55,1.16-1.09.17-.55.09-1.01-.24-1.37s-.98-.69-1.96-.99l-.64-.2c-1.59-.49-2.72-1.14-3.39-1.95s-.84-1.74-.51-2.8c.32-1.03.97-1.71,1.96-2.03.99-.32,2.22-.25,3.7.2.6.18,1.19.46,1.76.82.57.36.88.54.91.55.09.03.27,0,.56-.08.29-.08.55-.08.78,0,.27.08.43.24.5.47.07.24.04.55-.08.94l-.42,1.37c-.13.41-.28.69-.46.84-.18.15-.41.18-.68.09-.23-.07-.46-.36-.68-.86-.16-.35-.29-.62-.41-.8-.3-.51-.65-.92-1.07-1.23-.42-.31-.94-.56-1.57-.76-.73-.23-1.38-.24-1.92-.06-.55.19-.9.53-1.05,1.03-.15.49-.03.91.37,1.27.4.35,1.35.78,2.86,1.28,1.61.54,2.71,1.18,3.3,1.94s.71,1.69.38,2.79c-.32,1.05-1,1.77-2.02,2.15-1.02.38-2.24.35-3.64-.08-.45-.14-.93-.33-1.45-.58-.52-.25-1.17-.6-1.93-1.05-.33.1-.6.16-.83.19-.22.03-.4.02-.53-.02-.27-.08-.45-.24-.54-.48-.09-.24-.07-.53.04-.89Z"/>
    <path class="cls-7" d="M255.7,429.19c-.25,1-.22,1.78.09,2.34.31.56.92.96,1.83,1.18.86.21,1.67.12,2.42-.28.75-.4,1.23-1.01,1.43-1.84l1.21-4.92-1.63-.4c-.31-.08-.52-.2-.62-.36-.11-.16-.13-.38-.06-.66.07-.3.2-.5.39-.61.19-.1.44-.12.78-.03l2.54.62c.3.07.5.19.59.35.09.16.07.5-.05,1l-2.01,8.16.55.13c.39.1.65.23.79.4s.17.4.1.69c-.07.29-.2.48-.4.58-.2.1-.45.12-.76.04l-1.81-.45c-.21-.05-.37-.14-.47-.25s-.13-.25-.09-.4l.2-.81c-.91.4-1.66.64-2.25.73s-1.2.05-1.8-.1c-1.31-.32-2.2-.91-2.69-1.77-.48-.86-.55-1.99-.21-3.39l1.32-5.36-.25-.06c-.54-.13-.89-.29-1.06-.46-.17-.17-.21-.42-.13-.74.07-.28.2-.46.38-.56s.45-.11.77-.03l1.8.44c.28.07.46.17.54.31s.07.4-.02.78l-1.4,5.7Z"/>
    <path class="cls-7" d="M266.7,435.54l.4-2.14c.07-.35.18-.59.34-.72.16-.13.39-.16.69-.11.33.06.55.34.65.82.08.3.15.52.23.68.26.5.69.94,1.3,1.32s1.31.65,2.11.8c.85.16,1.57.12,2.14-.13.58-.25.92-.65,1.03-1.22.11-.57-.02-1.01-.39-1.33-.37-.32-1.05-.57-2.06-.76l-.66-.13c-1.64-.31-2.83-.83-3.58-1.56-.75-.73-1.03-1.64-.82-2.72.2-1.06.77-1.8,1.72-2.23.95-.43,2.18-.5,3.7-.21.62.12,1.23.32,1.84.62s.93.44.96.45c.09.02.27-.03.55-.14.28-.11.54-.14.78-.1.27.05.46.19.55.42.1.23.1.54.03.94l-.27,1.41c-.08.43-.2.72-.37.89-.16.16-.39.22-.67.17-.24-.05-.5-.31-.78-.78-.2-.33-.36-.58-.49-.75-.35-.47-.75-.84-1.2-1.11s-1-.46-1.65-.58c-.75-.14-1.39-.09-1.92.16s-.84.63-.93,1.14c-.1.51.07.91.51,1.22.43.31,1.43.62,2.99.95,1.66.36,2.83.88,3.5,1.56.67.69.9,1.6.68,2.73-.2,1.08-.79,1.87-1.77,2.36-.97.49-2.18.6-3.63.33-.46-.09-.96-.22-1.5-.41-.55-.19-1.23-.47-2.04-.83-.32.13-.58.22-.8.28-.22.05-.4.07-.53.04-.28-.05-.48-.19-.59-.42s-.13-.52-.06-.89Z"/>
    <path class="cls-7" d="M290.86,429.61c.4.05.68.16.84.32.16.16.23.39.19.69-.04.28-.15.48-.34.6-.19.12-.45.16-.79.11l-4.92-.66-.54,4.06c-.18,1.33-.12,2.23.17,2.69.29.47.85.76,1.68.87.74.1,1.65,0,2.73-.29,1.09-.29,1.75-.42,1.99-.39.23.03.41.14.54.32s.19.39.16.63c-.04.27-.17.49-.39.66-.23.17-.59.32-1.09.44-.84.21-1.58.35-2.24.41-.66.06-1.26.05-1.82-.02-.95-.13-1.72-.39-2.33-.77-.6-.39-1.02-.9-1.26-1.55-.12-.3-.2-.66-.21-1.05s.03-1,.14-1.81l.05-.38.54-4.06-2.06-.28c-.34-.05-.58-.15-.71-.3s-.18-.38-.14-.68c.04-.33.18-.55.41-.64s.68-.09,1.37,0l1.37.18.33-2.49.09-.64c.05-.35.16-.6.33-.74.17-.15.42-.2.73-.16.36.05.59.18.7.4s.12.69.02,1.41l-.33,2.47,4.8.64Z"/>
    <path class="cls-7" d="M303.5,439.92c-.72.55-1.48.95-2.29,1.2s-1.63.35-2.46.28c-1.21-.1-2.17-.51-2.86-1.25-.69-.74-.99-1.65-.91-2.73.1-1.29.68-2.24,1.72-2.87,1.05-.63,2.47-.87,4.26-.73.47.04.95.11,1.42.21.48.1.96.23,1.45.41v-.09c.08-.94-.09-1.65-.5-2.13-.41-.48-1.09-.76-2.03-.84-.64-.05-1.36.06-2.17.34-.81.28-1.34.41-1.59.39-.24-.02-.42-.13-.56-.33-.14-.2-.2-.46-.17-.76.04-.48.52-.85,1.45-1.11s2.09-.34,3.49-.22c1.43.11,2.49.57,3.16,1.35.67.79.95,1.89.84,3.32l-.44,5.53.6.05c.58.05.96.14,1.15.28s.27.37.24.68c-.02.29-.12.51-.3.64-.17.13-.43.19-.75.16l-1.92-.15c-.23-.02-.41-.1-.55-.25-.14-.15-.22-.36-.25-.62l-.04-.75ZM303.71,436.07c-.44-.18-.86-.33-1.27-.43s-.83-.17-1.24-.2c-1.25-.1-2.26.03-3.02.4-.76.36-1.17.91-1.22,1.62-.05.55.15,1.03.57,1.42.42.4.99.62,1.69.68,1.03.08,2.01-.11,2.94-.58.93-.47,1.41-1,1.46-1.59l.11-1.32Z"/>
    <path class="cls-7" d="M316.23,440.34l3.93.11c.32,0,.55.08.7.22.15.14.22.35.21.65,0,.34-.09.56-.23.69-.15.12-.41.18-.8.17l-9.49-.27c-.33,0-.57-.09-.73-.24-.16-.15-.23-.37-.23-.67,0-.29.1-.5.28-.63.18-.13.43-.2.78-.19l3.74.11.22-7.86-2.4-.07c-.34,0-.59-.09-.76-.25-.17-.15-.25-.37-.25-.66,0-.28.1-.49.26-.63.17-.14.41-.2.74-.19l3.59.1c.22,0,.39.06.52.15.12.09.18.22.18.37l-.26,9.09ZM314.33,427.16c.03-.88.12-1.44.29-1.66.17-.22.51-.33,1.03-.31.51.01.84.12,1,.32.16.2.23.65.21,1.37-.02.7-.11,1.14-.26,1.3-.16.16-.5.24-1.03.22-.52-.01-.86-.1-1.02-.26s-.23-.48-.21-.97Z"/>
    <path class="cls-7" d="M324.81,440.45l-.18-7.85h-.23c-.55.02-.94-.04-1.15-.17-.21-.13-.32-.35-.33-.68,0-.3.07-.52.24-.66.17-.14.44-.21.83-.22h.58s1.18-.04,1.18-.04c.22,0,.39.04.52.12s.19.21.19.36l.02.83c.58-.57,1.16-.99,1.74-1.27.58-.28,1.18-.42,1.81-.44,1.23-.03,2.21.34,2.94,1.09s1.1,1.81,1.13,3.16l.12,5.55h.58c.41-.02.71.04.89.17.18.13.28.34.29.64,0,.32-.08.55-.27.69-.19.14-.53.21-1.02.22l-2.71.06c-.52.01-.86-.04-1.01-.16-.15-.12-.23-.35-.24-.69,0-.32.07-.54.24-.67.17-.13.49-.2.97-.21h.43s-.11-5.11-.11-5.11c-.02-.95-.25-1.68-.7-2.17-.44-.49-1.08-.73-1.91-.71-.84.02-1.57.32-2.19.9-.63.58-.93,1.28-.91,2.12l.11,5.1h.43c.49-.02.82.03,1,.15.17.12.26.34.27.66,0,.34-.06.58-.2.7-.14.13-.5.2-1.07.21l-2.23.05h-.66c-.33.02-.59-.04-.76-.18s-.26-.36-.27-.66c0-.33.08-.55.27-.67s.56-.19,1.12-.2h.26Z"/>
    <path class="cls-7" d="M346.59,439.62c-.62.65-1.32,1.17-2.08,1.54-.76.38-1.56.6-2.39.66-1.21.09-2.22-.18-3.01-.8-.8-.62-1.23-1.47-1.31-2.56-.1-1.29.33-2.32,1.26-3.1s2.3-1.24,4.09-1.37c.47-.04.95-.04,1.44-.01s.99.09,1.5.18v-.09c-.08-.94-.35-1.61-.83-2.03-.48-.41-1.2-.59-2.14-.52-.64.05-1.33.27-2.09.67-.76.4-1.26.61-1.51.63-.24.02-.44-.06-.61-.24-.17-.18-.26-.42-.29-.72-.04-.48.38-.92,1.26-1.32s2.01-.65,3.41-.76c1.43-.11,2.54.18,3.33.85.79.68,1.23,1.73,1.34,3.15l.41,5.54.6-.04c.58-.04.97-.01,1.17.1s.32.32.34.64c.02.29-.04.52-.2.68s-.39.25-.72.27l-1.92.14c-.23.02-.42-.04-.58-.17-.16-.13-.27-.32-.34-.58l-.15-.74ZM346.2,435.78c-.46-.11-.9-.19-1.33-.23-.43-.04-.85-.04-1.26-.01-1.25.09-2.23.38-2.92.86s-1.01,1.07-.96,1.79c.04.55.3.99.78,1.32.48.33,1.07.46,1.77.41,1.03-.08,1.97-.42,2.82-1.03.84-.61,1.24-1.2,1.2-1.79l-.1-1.32Z"/>
    <path class="cls-7" d="M353.97,430.85c.38-.62.89-1.13,1.54-1.52.64-.39,1.39-.63,2.25-.74,1.63-.21,3.06.17,4.28,1.13,1.23.96,1.94,2.25,2.15,3.87.2,1.6-.18,3.02-1.15,4.27-.97,1.25-2.26,1.98-3.87,2.18-.85.11-1.61.05-2.28-.17-.67-.22-1.25-.61-1.73-1.16l.12.97c.03.22,0,.38-.05.49s-.19.17-.36.19l-2.22.28c-.32.04-.56,0-.73-.13-.17-.13-.28-.34-.31-.63-.04-.32.02-.56.2-.7.17-.14.53-.25,1.08-.32l.26-.03-1.58-12.45-.23.03c-.55.07-.94.05-1.15-.05-.22-.1-.35-.32-.39-.64-.04-.29.02-.52.16-.69.14-.17.37-.27.69-.31l1.85-.23c.24-.03.43-.01.55.05.12.07.19.19.21.36l.75,5.93ZM358.75,438.16c1.14-.15,2.02-.62,2.65-1.44.62-.81.86-1.79.71-2.94-.14-1.13-.62-2.01-1.44-2.64-.82-.64-1.79-.88-2.9-.74-1.13.14-2,.62-2.63,1.44s-.87,1.79-.72,2.93c.14,1.14.62,2.02,1.43,2.66.81.64,1.78.89,2.9.74Z"/>
    <path class="cls-7" d="M369.31,423.81l-2.05.37c-.78.14-1.28.17-1.5.08-.22-.09-.36-.3-.42-.63-.05-.29,0-.52.13-.7.14-.17.36-.29.68-.35l3.98-.72c.22-.04.39-.03.53.04.14.07.22.18.25.33l2.47,13.59,3.79-.69c.31-.05.54-.03.71.08s.27.3.33.59c.06.33.03.57-.08.72-.11.15-.36.26-.74.33l-8.9,1.62c-.31.06-.57.03-.76-.09s-.31-.32-.37-.61c-.05-.28,0-.51.14-.67.14-.17.38-.28.72-.34l3.34-.61-2.25-12.35Z"/>
    <path class="cls-7" d="M381.67,430.7c.34,1.13.94,1.93,1.8,2.38.86.46,1.91.54,3.14.24.93-.22,1.88-.71,2.86-1.47s1.58-1.17,1.81-1.22c.24-.06.46-.03.65.08.19.11.32.28.37.5.06.23.02.46-.1.69-.12.23-.34.48-.66.75-.7.58-1.45,1.07-2.25,1.48-.8.41-1.61.71-2.45.91-1.81.43-3.39.26-4.73-.53-1.34-.78-2.21-2.04-2.63-3.76-.42-1.76-.18-3.32.71-4.68.89-1.36,2.26-2.27,4.11-2.71,1.68-.4,3.19-.22,4.54.53,1.35.75,2.19,1.85,2.54,3.3.11.45.08.77-.07.96-.15.2-.64.39-1.46.59l-.18.04-8.01,1.92ZM381.35,429.13l7.76-1.86c-.35-.92-.92-1.58-1.73-2-.81-.42-1.7-.51-2.68-.27-1.06.25-1.88.74-2.47,1.47-.59.73-.88,1.61-.88,2.65Z"/>
    <path class="cls-7" d="M417.7,423.44c.31-.11.58-.13.8-.05.21.08.37.25.47.52.1.28.1.51,0,.71-.11.2-.31.35-.61.46l-7.53,2.74c-.31.11-.58.13-.8.05-.22-.08-.37-.26-.47-.53-.1-.27-.09-.5.01-.7.11-.2.31-.35.61-.46l1.96-.71-2.56-7.04-1.89.69c-.31.11-.59.13-.81.05s-.39-.26-.49-.53c-.1-.28-.1-.51.02-.71.11-.2.32-.35.63-.46l1.82-.66-.29-.78c-.5-1.39-.47-2.54.09-3.45.56-.91,1.73-1.69,3.49-2.33.86-.31,1.53-.45,2.01-.4.48.04.8.27.94.67.09.24.07.47-.05.68s-.32.38-.6.48c-.14.05-.49.12-1.05.22-.56.1-1.03.22-1.4.35-.87.32-1.42.72-1.67,1.23-.24.5-.21,1.17.1,2.02l.24.66,4.08-1.48c.31-.11.58-.13.8-.05.22.08.37.26.47.53.1.26.09.5-.03.71-.11.21-.32.37-.61.48l-3.99,1.45,2.56,7.04,3.76-1.36Z"/>
    <path class="cls-7" d="M426.53,419.88l3.73-1.61c.29-.13.54-.16.73-.09s.35.23.46.5c.13.31.16.55.08.72-.08.17-.3.34-.65.49l-7.36,3.18c-.29.13-.54.15-.75.08-.21-.07-.37-.24-.49-.51-.11-.26-.12-.49-.02-.68.1-.19.31-.36.63-.5l1.96-.85-3.12-7.22-.76.33c-.73.31-1.21.45-1.44.41-.23-.04-.41-.21-.54-.51-.11-.26-.12-.49-.03-.68.09-.19.28-.36.58-.49l2.56-1.11c.2-.09.37-.11.51-.08s.24.13.31.28l.83,1.91c.33-1.2.78-2.18,1.37-2.95.58-.77,1.32-1.35,2.22-1.73.67-.29,1.27-.39,1.79-.3s.88.35,1.07.77c.12.28.12.56,0,.87s-.29.51-.54.61c-.17.07-.51.09-1.02.03-.51-.05-.92,0-1.25.13-.59.25-1.11.73-1.58,1.42-.47.7-.9,1.67-1.3,2.91l2.02,4.66Z"/>
    <path class="cls-7" d="M435.52,412.1c.59,1.02,1.36,1.66,2.3,1.9s1.98.08,3.11-.5c.85-.43,1.67-1.13,2.44-2.1.77-.96,1.27-1.5,1.48-1.61.22-.11.44-.13.65-.07.22.06.38.2.48.4.11.21.13.44.06.7s-.22.55-.47.88c-.55.72-1.16,1.38-1.84,1.96-.68.58-1.4,1.07-2.17,1.45-1.66.84-3.23,1.04-4.72.59-1.48-.45-2.63-1.47-3.43-3.05-.82-1.61-.95-3.18-.4-4.72.55-1.53,1.67-2.73,3.37-3.59,1.54-.78,3.05-.96,4.54-.54,1.49.42,2.56,1.29,3.24,2.62.21.41.26.72.16.95s-.53.53-1.29.91l-.16.08-7.34,3.73ZM434.85,410.64l7.11-3.61c-.55-.81-1.27-1.33-2.15-1.54-.88-.22-1.77-.1-2.67.36-.97.49-1.66,1.16-2.06,2.01-.4.85-.48,1.77-.24,2.79Z"/>
    <path class="cls-7" d="M449.32,409.72l-1.11-1.88c-.18-.31-.26-.57-.22-.77s.19-.38.45-.53c.29-.17.63-.11,1.03.19.25.17.46.29.62.36.52.2,1.14.25,1.85.14.71-.11,1.42-.37,2.11-.79.75-.44,1.25-.95,1.53-1.51.27-.57.26-1.1-.03-1.59-.3-.5-.69-.75-1.17-.74-.49,0-1.17.26-2.05.78l-.58.34c-1.44.85-2.68,1.25-3.72,1.19-1.05-.05-1.85-.56-2.41-1.51-.55-.93-.61-1.87-.18-2.81.43-.95,1.31-1.81,2.64-2.6.54-.32,1.14-.57,1.79-.75s.99-.28,1.02-.3c.08-.05.19-.2.32-.47.14-.27.31-.46.52-.59.24-.14.47-.16.69-.05.22.11.43.34.64.69l.73,1.23c.22.37.32.68.31.91-.01.23-.15.42-.39.57-.21.12-.58.1-1.1-.08-.36-.12-.65-.2-.87-.24-.58-.12-1.12-.14-1.63-.04-.51.1-1.05.32-1.62.65-.66.39-1.11.85-1.34,1.38-.23.53-.21,1.02.05,1.47.26.44.66.64,1.18.58.53-.06,1.49-.47,2.87-1.26,1.48-.83,2.7-1.21,3.66-1.13.96.08,1.73.61,2.31,1.6.56.95.64,1.93.23,2.94-.41,1.01-1.25,1.89-2.51,2.64-.4.24-.87.46-1.4.68-.54.22-1.23.46-2.08.72-.15.31-.29.55-.42.74-.13.18-.25.31-.37.38-.25.15-.49.17-.72.07-.23-.1-.44-.3-.63-.63Z"/>
    <path class="cls-7" d="M461.95,401.07l-7.09-10.35-.19.13c-.46.31-.81.48-1.06.49-.25,0-.46-.12-.65-.39-.17-.24-.22-.47-.17-.69.06-.22.21-.41.48-.59l1.54-1.05c.18-.12.35-.18.5-.18s.27.07.36.2l3.14,4.58c.18-.8.43-1.47.76-2.02.33-.55.76-1,1.28-1.36,1.02-.7,2.04-.93,3.05-.7s1.91.91,2.68,2.03l3.14,4.58.48-.33c.34-.23.62-.35.85-.34.23,0,.42.14.59.38.17.24.22.47.17.69-.05.21-.21.41-.48.6l-2.69,1.85c-.32.22-.57.31-.75.28-.18-.03-.37-.18-.56-.46-.18-.27-.24-.5-.17-.69s.3-.42.69-.69l.36-.24-2.88-4.2c-.54-.79-1.13-1.27-1.77-1.44-.64-.17-1.3-.02-1.99.45-.7.48-1.15,1.13-1.35,1.95s-.07,1.58.4,2.27l2.88,4.2.35-.24c.4-.28.71-.41.92-.41s.41.14.59.4c.19.28.26.5.22.69s-.22.38-.53.6l-2.69,1.84c-.26.18-.5.25-.72.22-.21-.03-.4-.17-.57-.41-.18-.27-.23-.51-.14-.71s.37-.47.82-.78l.21-.15Z"/>
    <path class="cls-7" d="M473.91,392.64l-4.89-6.15-.18.15c-.43.35-.77.53-1.02.56-.24.03-.47-.09-.67-.34-.19-.24-.26-.46-.21-.67.05-.21.23-.44.53-.68l.45-.36.92-.73c.17-.14.34-.21.49-.21s.28.05.37.17l.52.65c.12-.81.33-1.49.62-2.07.29-.57.68-1.05,1.18-1.44.97-.77,1.96-1.07,3-.91,1.03.16,1.97.77,2.81,1.83l3.45,4.35.45-.36c.32-.26.6-.39.82-.4.23,0,.43.1.61.34.2.25.26.49.2.71s-.29.49-.68.8l-2.13,1.69c-.41.33-.71.49-.9.48-.19,0-.39-.14-.61-.41-.2-.25-.27-.48-.21-.68.06-.2.28-.45.65-.75l.34-.27-3.17-3.99c-.6-.75-1.22-1.18-1.87-1.31-.65-.12-1.3.07-1.95.59-.65.52-1.05,1.2-1.2,2.04-.15.84.04,1.58.55,2.24l3.17,3.99.34-.27c.38-.3.68-.46.89-.47.21-.01.42.11.61.36.21.27.3.5.26.68-.04.19-.28.46-.73.81l-1.75,1.39-.52.41c-.26.21-.5.31-.72.3-.22,0-.42-.13-.61-.37-.2-.26-.27-.49-.19-.7s.33-.49.77-.84l.2-.16Z"/>
    <path class="cls-7" d="M483.23,380.62c.85.82,1.76,1.22,2.74,1.2.97-.02,1.92-.47,2.85-1.33.7-.65,1.29-1.54,1.77-2.68.48-1.14.81-1.79.98-1.95.18-.17.38-.25.61-.25s.42.09.57.26c.16.17.25.39.25.65,0,.26-.06.59-.21.98-.33.85-.74,1.64-1.24,2.39-.5.75-1.06,1.41-1.69,1.99-1.37,1.26-2.83,1.88-4.38,1.85-1.55-.03-2.93-.69-4.13-1.99-1.23-1.32-1.78-2.8-1.67-4.43.11-1.63.86-3.09,2.26-4.38,1.27-1.17,2.67-1.76,4.21-1.76,1.54,0,2.82.54,3.83,1.63.31.34.45.63.41.87s-.36.65-.99,1.23l-.14.12-6.04,5.59ZM482.18,379.4l5.86-5.42c-.75-.63-1.58-.93-2.49-.89-.91.03-1.73.39-2.47,1.07-.8.74-1.27,1.57-1.43,2.49-.16.92.02,1.84.54,2.74Z"/>
    <path class="cls-7" d="M495.91,374.45l-1.6-1.48c-.26-.24-.41-.47-.43-.67-.02-.2.07-.42.27-.64.23-.25.57-.29,1.04-.12.29.09.53.15.7.16.56.05,1.16-.09,1.81-.4s1.25-.77,1.8-1.36c.59-.64.93-1.27,1.02-1.89s-.07-1.13-.49-1.52c-.43-.39-.87-.52-1.34-.37-.46.14-1.04.59-1.74,1.34l-.46.5c-1.13,1.23-2.2,1.96-3.22,2.21-1.02.25-1.93,0-2.74-.75-.79-.73-1.12-1.61-.98-2.64.14-1.03.73-2.12,1.78-3.25.43-.46.93-.87,1.5-1.24.57-.36.87-.55.89-.58.06-.07.12-.25.17-.54.05-.29.16-.53.33-.71.19-.2.4-.29.65-.25s.51.2.81.47l1.05.97c.32.29.5.55.56.78.05.23-.02.45-.21.65-.17.18-.52.26-1.07.24-.38,0-.68,0-.9.02-.59.05-1.11.19-1.57.43-.46.24-.92.6-1.37,1.09-.52.56-.81,1.13-.88,1.71-.07.58.09,1.04.47,1.39.38.35.81.42,1.3.22.49-.2,1.29-.88,2.39-2.03,1.18-1.22,2.24-1.93,3.18-2.14.94-.2,1.83.09,2.68.87.81.75,1.17,1.66,1.07,2.75-.1,1.09-.65,2.17-1.65,3.25-.32.34-.7.7-1.15,1.06-.45.36-1.04.79-1.78,1.29-.06.34-.12.61-.19.83-.07.21-.15.37-.25.47-.19.21-.41.3-.66.28s-.51-.16-.79-.42Z"/>
    <path class="cls-7" d="M505.81,363.46l-1.72-1.34c-.28-.22-.45-.43-.49-.63s.03-.42.22-.66c.21-.26.55-.33,1.03-.21.3.07.54.1.71.1.56,0,1.15-.18,1.77-.55.62-.37,1.18-.87,1.67-1.51.53-.68.82-1.34.86-1.97s-.16-1.12-.61-1.47c-.46-.35-.91-.44-1.37-.26-.45.18-.99.68-1.62,1.48l-.41.53c-1.02,1.32-2.03,2.14-3.02,2.48-.99.34-1.93.16-2.8-.51-.85-.66-1.25-1.51-1.2-2.55.05-1.04.55-2.17,1.5-3.39.39-.5.85-.95,1.39-1.36s.82-.63.84-.65c.05-.07.1-.25.13-.55s.12-.54.27-.74c.17-.22.38-.32.62-.3s.53.15.85.4l1.13.88c.34.27.55.51.62.73.07.22.02.44-.15.67-.15.19-.5.3-1.05.33-.38.02-.68.06-.9.1-.58.1-1.09.28-1.53.56-.44.28-.86.68-1.27,1.2-.47.61-.72,1.2-.74,1.78-.02.58.18,1.03.59,1.35.41.32.84.35,1.31.1.47-.25,1.21-.99,2.21-2.23,1.07-1.32,2.07-2.12,2.99-2.4.92-.28,1.83-.07,2.74.64.87.68,1.3,1.56,1.3,2.65s-.46,2.22-1.36,3.38c-.29.37-.64.75-1.06,1.15s-.97.88-1.67,1.44c-.03.34-.07.62-.12.84-.05.22-.12.38-.2.49-.18.23-.39.34-.64.33-.25,0-.52-.12-.82-.35Z"/>
  </g>
  <g>
    <path class="cls-7" d="M260.01,369.93c6.62,0,10.32,3.03,11.67,6.67l-6.62,1.96c-.28-.95-1.35-2.92-4.6-2.92-4.21,0-4.71,3.2-1.12,4.32l4.82,1.51c12.45,3.93,10.6,17.39-3.03,17.39-5.78,0-11.5-2.41-13.29-7.24l6.95-2.3c.95,2.8,3.7,3.14,5.27,3.14,4.77,0,5.55-3.2,2.86-3.98l-5.78-1.63c-12.56-3.59-11.11-16.94,2.86-16.94Z"/>
    <path class="cls-7" d="M315.63,377.48c0,14.53-9.99,21.79-21.27,21.79s-21.27-7.26-21.27-21.79,9.73-21.73,21.27-21.73,21.27,7.2,21.27,21.73ZM305.31,377.48c0-7.78-3.83-13.1-10.96-13.1s-10.96,5.32-10.96,13.1,3.83,13.17,10.96,13.17,10.96-5.38,10.96-13.17Z"/>
    <path class="cls-7" d="M334.04,371.12l5.51,1.56c19.72,5.58,18.42,26.66-3.11,26.4-10.96-.13-17.77-4.35-19.98-10.12l10.18-3.37c1.43,3.37,5.45,4.35,8.95,4.35,8.37,0,8.5-5.71,1.95-7.46l-8.56-2.27c-17.32-4.6-15.05-24.65,5.45-24.65,9.79,0,15.83,4.02,17.25,10.12l-10.51,2.79c-.39-1.49-2.01-4.48-6.94-4.48-6.42,0-8.24,4.86-.2,7.13Z"/>
    <path class="cls-7" d="M371.39,371.12l5.51,1.56c19.72,5.58,18.42,26.66-3.11,26.4-10.96-.13-17.77-4.35-19.98-10.12l10.18-3.37c1.43,3.37,5.45,4.35,8.95,4.35,8.37,0,8.5-5.71,1.95-7.46l-8.56-2.27c-17.32-4.6-15.05-24.65,5.45-24.65,9.79,0,15.83,4.02,17.25,10.12l-10.51,2.79c-.39-1.49-2.01-4.48-6.94-4.48-6.42,0-8.24,4.86-.2,7.13Z"/>
  </g>
</svg>