<?xml version="1.0" encoding="UTF-8" standalone="no"?>
<svg
   id="Layer_1"
   data-name="Layer 1"
   viewBox="0 0 1172.11 684.71"
   version="1.1"
   sodipodi:docname="stars.svg"
   inkscape:version="1.4.2 (ebf0e940d0, 2025-05-08)"
   xmlns:inkscape="http://www.inkscape.org/namespaces/inkscape"
   xmlns:sodipodi="http://sodipodi.sourceforge.net/DTD/sodipodi-0.dtd"
   xmlns="http://www.w3.org/2000/svg"
   xmlns:svg="http://www.w3.org/2000/svg">
  <sodipodi:namedview
     id="namedview112"
     pagecolor="#000000"
     bordercolor="#666666"
     borderopacity="1.0"
     inkscape:showpageshadow="2"
     inkscape:pageopacity="0.0"
     inkscape:pagecheckerboard="0"
     inkscape:deskcolor="#d1d1d1"
     showgrid="false"
     inkscape:zoom="1.2055183"
     inkscape:cx="531.72151"
     inkscape:cy="325.58611"
     inkscape:window-width="3840"
     inkscape:window-height="2127"
     inkscape:window-x="0"
     inkscape:window-y="0"
     inkscape:window-maximized="0"
     inkscape:current-layer="Layer_1" />
  <defs
     id="defs1">
    <style
       id="style1">
      .cls-1 {
        fill: #68a042;
      }

      .cls-2 {
        opacity: .43;
      }

      .cls-2, .cls-3, .cls-4 {
        fill: #fff;
      }

      .cls-3 {
        opacity: .67;
      }

      .cls-5 {
        fill: #9f7c2d;
      }

      .cls-6 {
        fill: #a01d22;
      }

      .cls-7 {
        fill: #811619;
      }

      .cls-8 {
        opacity: .3;
      }

      .cls-9 {
        fill: #d01f26;
      }

      .cls-10 {
        fill: #2e613d;
      }

      .cls-11 {
        fill: #efdeb2;
      }

      .cls-12 {
        fill: #fdc044;
      }
    </style>
  </defs>
  <g
     id="g112"
     style="opacity:1">
    <polygon
       class="cls-2"
       points="253.17 176.42 255.79 192.3 263.51 193.66 255.79 195.7 253.17 210.35 250.88 196.03 241.75 193.87 250.29 192.42 253.17 176.42"
       id="polygon77" />
    <polygon
       class="cls-2"
       points="997.12 38.66 999.74 54.54 1007.46 55.9 999.74 57.95 997.12 72.59 994.82 58.27 985.7 56.11 994.23 54.67 997.12 38.66"
       id="polygon78" />
    <polygon
       class="cls-2"
       points="1048.96 377.75 1051.58 393.63 1059.31 394.99 1051.58 397.04 1048.96 411.68 1046.67 397.36 1037.54 395.2 1046.08 393.76 1048.96 377.75"
       id="polygon79" />
    <polygon
       class="cls-2"
       points="728.99 26.72 731.61 42.6 739.33 43.96 731.61 46 728.99 60.65 726.69 46.33 717.56 44.17 726.1 42.73 728.99 26.72"
       id="polygon80" />
    <g
       class="cls-8"
       id="g90">
      <polygon
         class="cls-4"
         points="113.55 151.09 115.99 165.89 123.2 167.16 115.99 169.06 113.55 182.72 111.41 169.37 102.9 167.35 110.86 166.01 113.55 151.09"
         id="polygon81" />
      <polygon
         class="cls-4"
         points="44.37 335.74 46.81 350.54 54.02 351.81 46.81 353.71 44.37 367.36 42.23 354.02 33.72 352 41.68 350.66 44.37 335.74"
         id="polygon82" />
      <polygon
         class="cls-4"
         points="41.68,350.66 44.37,335.74 46.81,350.54 54.02,351.81 46.81,353.71 44.37,367.36 42.23,354.02 33.72,352 "
         id="polygon82-2"
         style="fill:#ffffff"
         transform="translate(517.91188,77.809734)" />
      <polygon
         class="cls-4"
         points="64.55 31.78 66.99 46.58 74.19 47.85 66.99 49.75 64.55 63.4 62.41 50.06 53.9 48.04 61.86 46.7 64.55 31.78"
         id="polygon83" />
      <polygon
         class="cls-4"
         points="246.09 44.14 248.53 58.95 255.73 60.22 248.53 62.12 246.09 75.77 243.95 62.42 235.43 60.41 243.4 59.07 246.09 44.14"
         id="polygon84" />
      <polygon
         class="cls-4"
         points="243.4,59.07 246.09,44.14 248.53,58.95 255.73,60.22 248.53,62.12 246.09,75.77 243.95,62.42 235.43,60.41 "
         id="polygon84-5"
         style="fill:#ffffff"
         transform="translate(115.30048,464.84076)" />
      <polygon
         class="cls-4"
         points="546.81 71.65 549.25 86.46 556.45 87.72 549.25 89.63 546.81 103.28 544.66 89.93 536.15 87.92 544.11 86.57 546.81 71.65"
         id="polygon85" />
      <polygon
         class="cls-4"
         points="544.11,86.57 546.81,71.65 549.25,86.46 556.45,87.72 549.25,89.63 546.81,103.28 544.66,89.93 536.15,87.92 "
         id="polygon85-7"
         style="fill:#ffffff"
         transform="translate(205.93685,494.3359)" />
      <polygon
         class="cls-4"
         points="976.18 291.11 978.62 305.92 985.82 307.18 978.62 309.09 976.18 322.74 974.04 309.39 965.53 307.38 973.49 306.03 976.18 291.11"
         id="polygon86" />
      <polygon
         class="cls-4"
         points="973.49,306.03 976.18,291.11 978.62,305.92 985.82,307.18 978.62,309.09 976.18,322.74 974.04,309.39 965.53,307.38 "
         id="polygon86-3"
         style="fill:#ffffff"
         transform="translate(-904.5373,302.65921)" />
      <polygon
         class="cls-4"
         points="1095.64 176.13 1098.08 190.94 1105.28 192.2 1098.08 194.11 1095.64 207.76 1093.49 194.41 1084.98 192.4 1092.94 191.05 1095.64 176.13"
         id="polygon87" />
      <polygon
         class="cls-4"
         points="1092.94,191.05 1095.64,176.13 1098.08,190.94 1105.28,192.2 1098.08,194.11 1095.64,207.76 1093.49,194.41 1084.98,192.4 "
         id="polygon87-7"
         style="fill:#ffffff"
         transform="translate(-1023.4072,301.31556)" />
      <polygon
         class="cls-4"
         points="1092.94,191.05 1095.64,176.13 1098.08,190.94 1105.28,192.2 1098.08,194.11 1095.64,207.76 1093.49,194.41 1084.98,192.4 "
         id="polygon87-1"
         style="fill:#ffffff"
         transform="translate(-576.32696,367.08712)" />
      <polygon
         class="cls-4"
         points="1092.94,191.05 1095.64,176.13 1098.08,190.94 1105.28,192.2 1098.08,194.11 1095.64,207.76 1093.49,194.41 1084.98,192.4 "
         id="polygon87-2"
         style="fill:#ffffff"
         transform="translate(-393.65531,113.53696)" />
      <polygon
         class="cls-4"
         points="1084.98,192.4 1092.94,191.05 1095.64,176.13 1098.08,190.94 1105.28,192.2 1098.08,194.11 1095.64,207.76 1093.49,194.41 "
         id="polygon87-2-45"
         style="fill:#ffffff"
         transform="translate(-652.36525,139.63321)" />
      <polygon
         class="cls-4"
         points="1084.98,192.4 1092.94,191.05 1095.64,176.13 1098.08,190.94 1105.28,192.2 1098.08,194.11 1095.64,207.76 1093.49,194.41 "
         id="polygon87-2-4"
         style="fill:#ffffff"
         transform="translate(-99.521383,375.99279)" />
      <polygon
         class="cls-4"
         points="869.57 91.55 872.01 106.36 879.21 107.62 872.01 109.53 869.57 123.18 867.42 109.83 858.91 107.82 866.87 106.47 869.57 91.55"
         id="polygon88" />
      <polygon
         class="cls-4"
         points="1130.6 20.58 1133.04 35.38 1140.24 36.65 1133.04 38.56 1130.6 52.21 1128.46 38.86 1119.95 36.84 1127.91 35.5 1130.6 20.58"
         id="polygon89" />
      <polygon
         class="cls-4"
         points="264.13 348.62 266.57 363.42 273.77 364.69 266.57 366.6 264.13 380.25 261.99 366.9 253.48 364.89 261.44 363.54 264.13 348.62"
         id="polygon90" />
    </g>
    <polygon
       class="cls-3"
       points="166.46 16.75 167.29 25.83 172.06 26.75 167.35 27.56 166.46 36.75 165.35 27.65 159.93 26.23 165.32 25.82 166.46 16.75"
       id="polygon91" />
    <polygon
       class="cls-3"
       points="153.54 276.89 154.37 285.97 159.14 286.89 154.44 287.7 153.54 296.89 152.43 287.79 147.02 286.37 152.4 285.96 153.54 276.89"
       id="polygon92" />
    <polygon
       class="cls-3"
       points="63.4 221.08 64.23 230.16 69 231.08 64.3 231.88 63.4 241.08 62.29 231.97 56.88 230.56 62.27 230.14 63.4 221.08"
       id="polygon93" />
    <polygon
       class="cls-3"
       points="358.33 98.07 359.17 107.15 363.93 108.07 359.23 108.88 358.33 118.07 357.22 108.96 351.81 107.55 357.2 107.13 358.33 98.07"
       id="polygon94" />
    <polygon
       class="cls-3"
       points="435.1 25.2 435.93 34.28 440.7 35.2 436 36.01 435.1 45.2 433.99 36.1 428.58 34.68 433.96 34.27 435.1 25.2"
       id="polygon95" />
    <polygon
       class="cls-3"
       points="433.96,34.27 435.1,25.2 435.93,34.28 440.7,35.2 436,36.01 435.1,45.2 433.99,36.1 428.58,34.68 "
       id="polygon95-9"
       style="opacity:0.67;fill:#ffffff"
       transform="translate(51.877751,190.25262)" />
    <polygon
       class="cls-3"
       points="428.58,34.68 433.96,34.27 435.1,25.2 435.93,34.28 440.7,35.2 436,36.01 435.1,45.2 433.99,36.1 "
       id="polygon95-9-2"
       style="opacity:0.67;fill:#ffffff"
       transform="translate(-0.06750533,106.70802)" />
    <polygon
       class="cls-3"
       points="862.65 382.65 863.48 391.73 868.25 392.65 863.55 393.46 862.65 402.65 861.54 393.55 856.13 392.13 861.52 391.72 862.65 382.65"
       id="polygon96" />
    <polygon
       class="cls-3"
       points="861.52,391.72 862.65,382.65 863.48,391.73 868.25,392.65 863.55,393.46 862.65,402.65 861.54,393.55 856.13,392.13 "
       id="polygon96-6"
       style="opacity:0.67;fill:#ffffff"
       transform="translate(-255.90199,-165.04231)" />
    <polygon
       class="cls-3"
       points="962.4 410.63 963.23 419.71 968 420.63 963.3 421.44 962.4 430.63 961.29 421.53 955.88 420.11 961.26 419.7 962.4 410.63"
       id="polygon97" />
    <polygon
       class="cls-3"
       points="962.4,410.63 963.23,419.71 968,420.63 963.3,421.44 962.4,430.63 961.29,421.53 955.88,420.11 961.26,419.7 "
       id="polygon97-8"
       style="opacity:0.67;fill:#ffffff"
       transform="translate(-661.74398,158.13364)" />
    <polygon
       class="cls-3"
       points="1150.65 455.1 1151.48 464.18 1156.25 465.1 1151.55 465.91 1150.65 475.1 1149.54 466 1144.12 464.58 1149.51 464.17 1150.65 455.1"
       id="polygon98" />
    <polygon
       class="cls-3"
       points="1149.51,464.17 1150.65,455.1 1151.48,464.18 1156.25,465.1 1151.55,465.91 1150.65,475.1 1149.54,466 1144.12,464.58 "
       id="polygon98-7"
       style="opacity:0.67;fill:#ffffff"
       transform="translate(-479.03167,41.778078)" />
    <polygon
       class="cls-3"
       points="1109.79 272.56 1110.62 281.64 1115.39 282.56 1110.68 283.37 1109.79 292.56 1108.68 283.45 1103.26 282.04 1108.65 281.62 1109.79 272.56"
       id="polygon99" />
    <polygon
       class="cls-3"
       points="1108.65,281.62 1109.79,272.56 1110.62,281.64 1115.39,282.56 1110.68,283.37 1109.79,292.56 1108.68,283.45 1103.26,282.04 "
       id="polygon99-5"
       style="opacity:0.67;fill:#ffffff"
       transform="translate(-268.92739,58.358718)" />
    <polygon
       class="cls-3"
       points="993.25 187.64 994.08 196.72 998.85 197.64 994.14 198.44 993.25 207.64 992.13 198.53 986.72 197.12 992.11 196.7 993.25 187.64"
       id="polygon100" />
    <polygon
       class="cls-3"
       points="992.11,196.7 993.25,187.64 994.08,196.72 998.85,197.64 994.14,198.44 993.25,207.64 992.13,198.53 986.72,197.12 "
       id="polygon100-1"
       style="opacity:0.67;fill:#ffffff"
       transform="translate(-323.05434,193.58182)" />
    <polygon
       class="cls-3"
       points="1021.66 162.15 1022.49 171.23 1027.26 172.15 1022.55 172.96 1021.66 182.15 1020.55 173.05 1015.13 171.63 1020.52 171.22 1021.66 162.15"
       id="polygon101" />
    <polygon
       class="cls-3"
       points="1020.52,171.22 1021.66,162.15 1022.49,171.23 1027.26,172.15 1022.55,172.96 1021.66,182.15 1020.55,173.05 1015.13,171.63 "
       id="polygon101-3"
       style="opacity:0.67;fill:#ffffff"
       transform="translate(-423.50263,131.37171)" />
    <polygon
       class="cls-3"
       points="1015.13,171.63 1020.52,171.22 1021.66,162.15 1022.49,171.23 1027.26,172.15 1022.55,172.96 1021.66,182.15 1020.55,173.05 "
       id="polygon101-3-6"
       style="opacity:0.67;fill:#ffffff"
       transform="translate(-182.52892,331.71311)" />
    <polygon
       class="cls-3"
       points="1079.21 99.13 1080.04 108.21 1084.81 109.13 1080.1 109.93 1079.21 119.13 1078.1 110.02 1072.68 108.61 1078.07 108.19 1079.21 99.13"
       id="polygon102" />
    <polygon
       class="cls-3"
       points="834.57 3.81 835.4 12.89 840.17 13.81 835.46 14.61 834.57 23.81 833.45 14.7 828.04 13.29 833.43 12.87 834.57 3.81"
       id="polygon103" />
    <polygon
       class="cls-3"
       points="724.7 137.91 725.53 146.99 730.3 147.91 725.6 148.72 724.7 157.91 723.59 148.81 718.18 147.39 723.56 146.98 724.7 137.91"
       id="polygon104" />
    <polygon
       class="cls-3"
       points="879.13 173.91 879.96 182.99 884.73 183.91 880.03 184.71 879.13 193.91 878.02 184.8 872.61 183.39 878 182.97 879.13 173.91"
       id="polygon105" />
    <polygon
       class="cls-3"
       points="878,182.97 879.13,173.91 879.96,182.99 884.73,183.91 880.03,184.71 879.13,193.91 878.02,184.8 872.61,183.39 "
       id="polygon105-3"
       style="opacity:0.67;fill:#ffffff"
       transform="translate(-607.41323,289.01429)" />
    <polygon
       class="cls-3"
       points="878,182.97 879.13,173.91 879.96,182.99 884.73,183.91 880.03,184.71 879.13,193.91 878.02,184.8 872.61,183.39 "
       id="polygon105-7"
       style="opacity:0.67;fill:#ffffff"
       transform="translate(-490.47119,213.77749)" />
    <polygon
       class="cls-3"
       points="22.39 109.1 23.22 118.18 27.99 119.1 23.28 119.91 22.39 129.1 21.28 119.99 15.86 118.58 21.25 118.16 22.39 109.1"
       id="polygon106" />
    <polygon
       class="cls-3"
       points="21.25,118.16 22.39,109.1 23.22,118.18 27.99,119.1 23.28,119.91 22.39,129.1 21.28,119.99 15.86,118.58 "
       id="polygon106-9"
       style="opacity:0.67;fill:#ffffff"
       transform="translate(173.4277,418.50151)" />
    <polygon
       class="cls-3"
       points="15.86,118.58 21.25,118.16 22.39,109.1 23.22,118.18 27.99,119.1 23.28,119.91 22.39,129.1 21.28,119.99 "
       id="polygon106-9-6"
       style="opacity:0.67;fill:#ffffff"
       transform="translate(1049.0106,521.25958)" />
    <polygon
       class="cls-3"
       points="21.28,119.99 15.86,118.58 21.25,118.16 22.39,109.1 23.22,118.18 27.99,119.1 23.28,119.91 22.39,129.1 "
       id="polygon106-9-6-6"
       style="opacity:0.67;fill:#ffffff"
       transform="translate(846.90321,521.57531)" />
    <polygon
       class="cls-3"
       points="586.06 11.56 586.89 20.64 591.66 21.56 586.95 22.36 586.06 31.56 584.95 22.45 579.53 21.04 584.92 20.62 586.06 11.56"
       id="polygon107" />
    <polygon
       class="cls-3"
       points="139.11 385.26 139.94 394.34 144.71 395.26 140.01 396.07 139.11 405.26 138 396.16 132.59 394.74 137.98 394.33 139.11 385.26"
       id="polygon108" />
    <polygon
       class="cls-3"
       points="949.46 37.43 950.29 46.51 955.06 47.43 950.35 48.24 949.46 57.43 948.35 48.33 942.93 46.91 948.32 46.5 949.46 37.43"
       id="polygon109" />
    <polygon
       class="cls-3"
       points="948.32,46.5 949.46,37.43 950.29,46.51 955.06,47.43 950.35,48.24 949.46,57.43 948.35,48.33 942.93,46.91 "
       id="polygon109-5"
       style="opacity:0.67;fill:#ffffff"
       transform="translate(-324.1345,605.84873)" />
    <polygon
       class="cls-3"
       points="123.64 91.02 124.47 100.11 129.24 101.03 124.54 101.83 123.64 111.03 122.53 101.92 117.11 100.51 122.5 100.09 123.64 91.02"
       id="polygon110" />
    <polygon
       class="cls-3"
       points="122.5,100.09 123.64,91.02 124.47,100.11 129.24,101.03 124.54,101.83 123.64,111.03 122.53,101.92 117.11,100.51 "
       id="polygon110-0"
       style="opacity:0.67;fill:#ffffff"
       transform="translate(116.08529,545.84632)" />
    <polygon
       class="cls-3"
       points="117.11,100.51 122.5,100.09 123.64,91.02 124.47,100.11 129.24,101.03 124.54,101.83 123.64,111.03 122.53,101.92 "
       id="polygon110-0-7"
       style="opacity:0.67;fill:#ffffff"
       transform="translate(282.85319,525.87156)" />
    <polygon
       class="cls-3"
       points="283.17 151.36 284 160.45 288.77 161.37 284.06 162.17 283.17 171.37 282.06 162.26 276.64 160.85 282.03 160.43 283.17 151.36"
       id="polygon111" />
    <polygon
       class="cls-3"
       points="282.03,160.43 283.17,151.36 284,160.45 288.77,161.37 284.06,162.17 283.17,171.37 282.06,162.26 276.64,160.85 "
       id="polygon111-7"
       style="opacity:0.67;fill:#ffffff"
       transform="translate(80.985881,100.85391)" />
    <polygon
       class="cls-3"
       points="330.62 9.15 331.46 18.23 336.22 19.15 331.52 19.95 330.62 29.15 329.51 20.04 324.1 18.63 329.49 18.21 330.62 9.15"
       id="polygon112" />
  </g>
</svg>
